0
SECTION
2
HEADER
9
$INSUNITS
70
4
9
$ACADVER
1
AC1014
9
$HANDSEED
5
FFFF
0
ENDSEC
0
SECTION
2
TABLES
0
TABLE
2
VPORT
5
8
100
AcDbSymbolTable
0
ENDTAB
0
TABLE
2
LTYPE
5
5
100
AcDbSymbolTable
0
LTYPE
5
14
100
AcDbSymbolTableRecord
100
AcDbLinetypeTableRecord
2
BYBLOCK
70
0
0
LTYPE
5
15
100
AcDbSymbolTableRecord
100
AcDbLinetypeTableRecord
2
BYLAYER
70
0
0
ENDTAB
0
TABLE
2
LAYER
5
2
100
AcDbSymbolTable
70
2
0
LAYER
5
50
100
AcDbSymbolTableRecord
100
AcDbLayerTableRecord
2
0
70
0
6
CONTINUOUS
0
ENDTAB
0
TABLE
2
STYLE
5
3
100
AcDbSymbolTable
70
1
0
STYLE
5
11
100
AcDbSymbolTableRecord
100
AcDbTextStyleTableRecord
2
STANDARD
70
0
0
ENDTAB
0
TABLE
2
VIEW
5
6
100
AcDbSymbolTable
70
0
0
ENDTAB
0
TABLE
2
UCS
5
7
100
AcDbSymbolTable
70
0
0
ENDTAB
0
TABLE
2
APPID
5
9
100
AcDbSymbolTable
70
2
0
APPID
5
12
100
AcDbSymbolTableRecord
100
AcDbRegAppTableRecord
2
ACAD
70
0
0
ENDTAB
0
TABLE
2
DIMSTYLE
5
A
100
AcDbSymbolTable
70
1
0
ENDTAB
0
TABLE
2
BLOCK_RECORD
5
1
100
AcDbSymbolTable
70
1
0
BLOCK_RECORD
5
1F
100
AcDbSymbolTableRecord
100
AcDbBlockTableRecord
2
*MODEL_SPACE
0
BLOCK_RECORD
5
1B
100
AcDbSymbolTableRecord
100
AcDbBlockTableRecord
2
*PAPER_SPACE
0
ENDTAB
0
ENDSEC
0
SECTION
2
BLOCKS
0
BLOCK
5
20
100
AcDbEntity
100
AcDbBlockBegin
2
*MODEL_SPACE
0
ENDBLK
5
21
100
AcDbEntity
100
AcDbBlockEnd
0
BLOCK
5
1C
100
AcDbEntity
100
AcDbBlockBegin
2
*PAPER_SPACE
0
ENDBLK
5
1D
100
AcDbEntity
100
AcDbBlockEnd
0
ENDSEC
0
SECTION
2
ENTITIES
0
LWPOLYLINE
5
100
100
AcDbEntity
8
0
100
AcDbPolyline
90
4
70
1
43
0.0
10
-309.25
20
29.750000000000021
10
-309.25
20
57.250000000000007
10
-356.25
20
57.250000000000007
10
-356.25
20
29.750000000000021
0
CIRCLE
5
101
100
AcDbEntity
8
0
100
AcDbCircle
10
-93.999999999999986
20
300
30
0
40
1.5000000000000036
210
0
220
0
230
1
0
CIRCLE
5
102
100
AcDbEntity
8
0
100
AcDbCircle
10
-123.99999999999999
20
300
30
0
40
1.5000000000000036
210
0
220
0
230
1
0
CIRCLE
5
103
100
AcDbEntity
8
0
100
AcDbCircle
10
-155.25
20
495.5
30
0
40
1.5000000000000213
210
0
220
-0
230
1
0
CIRCLE
5
104
100
AcDbEntity
8
0
100
AcDbCircle
10
-234.74999999999997
20
495.5
30
0
40
1.4999999999999858
210
0
220
-0
230
1
0
CIRCLE
5
105
100
AcDbEntity
8
0
100
AcDbCircle
10
-155.25
20
595
30
0
40
1.5000000000000036
210
0
220
-0
230
1
0
CIRCLE
5
106
100
AcDbEntity
8
0
100
AcDbCircle
10
-234.74999999999997
20
595
30
0
40
1.5000000000000213
210
0
220
-0
230
1
0
CIRCLE
5
107
100
AcDbEntity
8
0
100
AcDbCircle
10
-137.89110869565218
20
59.500000000000014
30
0
40
1.9999999999999929
210
0
220
0
230
1
0
CIRCLE
5
108
100
AcDbEntity
8
0
100
AcDbCircle
10
-67.108500000000006
20
59.500000000000014
30
0
40
2.0000000000000018
210
0
220
0
230
1
0
CIRCLE
5
109
100
AcDbEntity
8
0
100
AcDbCircle
10
-99.282412999999991
20
59.500000000000014
30
0
40
1.9999999999999929
210
0
220
0
230
1
0
CIRCLE
5
110
100
AcDbEntity
8
0
100
AcDbCircle
10
-346
20
410
30
0
40
1.4999999999999858
210
0
220
0
230
1
0
CIRCLE
5
111
100
AcDbEntity
8
0
100
AcDbCircle
10
-346
20
361
30
0
40
1.4999999999999858
210
0
220
0
230
1
0
CIRCLE
5
112
100
AcDbEntity
8
0
100
AcDbCircle
10
-363
20
497.5
30
0
40
2.5
210
0
220
0
230
1
0
CIRCLE
5
113
100
AcDbEntity
8
0
100
AcDbCircle
10
-27.000000000000014
20
497.49999999999994
30
0
40
2.5000000000000044
210
0
220
0
230
1
0
LWPOLYLINE
5
114
100
AcDbEntity
8
0
100
AcDbPolyline
90
4
70
1
43
0.0
10
5.9999999999999964
20
606
10
5.9999999999999432
20
-6.0000000000000071
10
-395.99999999999994
20
-5.9999999999999432
10
-395.99999999999994
20
606
0
CIRCLE
5
115
100
AcDbEntity
8
0
100
AcDbCircle
10
-10.000000000000071
20
153.33333333333329
30
0
40
2.5
210
0
220
0
230
1
0
CIRCLE
5
116
100
AcDbEntity
8
0
100
AcDbCircle
10
-380.00000000000006
20
153.33333333333343
30
0
40
2.5
210
0
220
0
230
1
0
CIRCLE
5
117
100
AcDbEntity
8
0
100
AcDbCircle
10
-10
20
296.66666666666657
30
0
40
2.5
210
0
220
0
230
1
0
CIRCLE
5
118
100
AcDbEntity
8
0
100
AcDbCircle
10
-380
20
296.66666666666657
30
0
40
2.5
210
0
220
0
230
1
0
CIRCLE
5
119
100
AcDbEntity
8
0
100
AcDbCircle
10
-380.00000000000006
20
440
30
0
40
2.5
210
0
220
-0
230
1
0
CIRCLE
5
120
100
AcDbEntity
8
0
100
AcDbCircle
10
-10.000000000000071
20
440.00000000000006
30
0
40
2.4999999999999933
210
0
220
-0
230
1
0
LWPOLYLINE
5
121
100
AcDbEntity
8
0
100
AcDbPolyline
90
4
70
1
43
0.0
10
-282.75000000000006
20
55.499999999999986
10
-282.75000000000006
20
31.499999999999986
10
-259.75
20
31.499999999999986
10
-259.75
20
55.499999999999986
0
CIRCLE
5
122
100
AcDbEntity
8
0
100
AcDbCircle
10
-285
20
43.5
30
0
40
1.7500000000000071
210
0
220
0
230
1
0
CIRCLE
5
123
100
AcDbEntity
8
0
100
AcDbCircle
10
-257.5
20
43.5
30
0
40
1.7500000000000071
210
0
220
0
230
1
0
CIRCLE
5
124
100
AcDbEntity
8
0
100
AcDbCircle
10
-195
20
560
30
0
40
31.999999999999993
210
0
220
-0
230
1
0
CIRCLE
5
125
100
AcDbEntity
8
0
100
AcDbCircle
10
-220
20
535
30
0
40
1.4999999999999858
210
0
220
-0
230
1
0
CIRCLE
5
126
100
AcDbEntity
8
0
100
AcDbCircle
10
-220
20
585
30
0
40
1.4999999999999858
210
0
220
-0
230
1
0
CIRCLE
5
127
100
AcDbEntity
8
0
100
AcDbCircle
10
-170
20
535
30
0
40
1.4999999999999858
210
0
220
-0
230
1
0
CIRCLE
5
128
100
AcDbEntity
8
0
100
AcDbCircle
10
-170
20
585
30
0
40
1.4999999999999858
210
0
220
-0
230
1
0
CIRCLE
5
129
100
AcDbEntity
8
0
100
AcDbCircle
10
-43.999999999999986
20
410
30
0
40
1.4999999999999769
210
0
220
0
230
1
0
CIRCLE
5
130
100
AcDbEntity
8
0
100
AcDbCircle
10
-43.999999999999986
20
361
30
0
40
1.5000000000000036
210
0
220
0
230
1
0
CIRCLE
5
131
100
AcDbEntity
8
0
100
AcDbCircle
10
-312.5
20
95
30
0
40
1.4999999999999858
210
0
220
0
230
1
0
CIRCLE
5
132
100
AcDbEntity
8
0
100
AcDbCircle
10
-319.5
20
99
30
0
40
1.5000000000000213
210
0
220
0
230
1
0
CIRCLE
5
133
100
AcDbEntity
8
0
100
AcDbCircle
10
-195
20
69
30
0
40
2.5
210
0
220
0
230
1
0
CIRCLE
5
134
100
AcDbEntity
8
0
100
AcDbCircle
10
-195
20
9.9999999999999982
30
0
40
2.5
210
0
220
0
230
1
0
CIRCLE
5
135
100
AcDbEntity
8
0
100
AcDbCircle
10
-380.00000000000006
20
590
30
0
40
2.5000000000000711
210
0
220
-0
230
1
0
CIRCLE
5
136
100
AcDbEntity
8
0
100
AcDbCircle
10
-10
20
590
30
0
40
2.5000000000000022
210
0
220
-0
230
1
0
CIRCLE
5
137
100
AcDbEntity
8
0
100
AcDbCircle
10
-10
20
10
30
0
40
2.5
210
0
220
-0
230
1
0
CIRCLE
5
138
100
AcDbEntity
8
0
100
AcDbCircle
10
-380
20
9.9999999999999982
30
0
40
2.5
210
0
220
-0
230
1
0
LWPOLYLINE
5
139
100
AcDbEntity
8
0
100
AcDbPolyline
90
24
70
1
43
0.0
10
-133.89110869565215
20
58.000000000000007
42
-0.41421356237309503
10
-135.89110869565215
20
56.000000000000007
10
-140.10849999999999
20
56.000000000000007
42
0.41421356237309503
10
-142.10849999999999
20
54
10
-142.10849999999999
20
41.000000000000014
42
0.41421356237309631
10
-140.10849999999999
20
38.999999999999986
10
-64.891499999999979
20
39
42
0.41421356237309631
10
-62.891499999999994
20
41.000000000000014
10
-62.891499999999986
20
54
42
0.41421356237309503
10
-64.891499999999979
20
56.000000000000014
10
-69.108500000000006
20
56.000000000000021
42
-0.41421356237309115
10
-71.108500000000006
20
58.000000000000007
10
-71.108500000000006
20
61.999999999999993
42
0.41421356237309631
10
-73.108500000000006
20
63.999999999999986
10
-93.282413000000005
20
64
42
0.41421356237309631
10
-95.282412999999977
20
61.999999999999993
10
-95.282412999999991
20
58.000000000000007
42
-0.41421356237309503
10
-97.282412999999991
20
56.000000000000014
10
-101.28241300000001
20
56
42
-0.41421356237309503
10
-103.28241300000002
20
58.000000000000007
10
-103.28241300000001
20
61.999999999999993
42
0.41421356237309631
10
-105.28241299999999
20
63.999999999999986
10
-131.89110869565218
20
64
42
0.41421356237309631
10
-133.89110869565215
20
61.999999999999993
0
ENDSEC
0
SECTION
2
OBJECTS
0
DICTIONARY
5
C
100
AcDbDictionary
3
ACAD_GROUP
350
D
3
ACAD_MLINESTYLE
350
17
0
DICTIONARY
5
D
100
AcDbDictionary
0
DICTIONARY
5
1A
330
C
100
AcDbDictionary
0
DICTIONARY
5
17
100
AcDbDictionary
0
ENDSEC
0
EOF
