0
SECTION
2
HEADER
9
$INSUNITS
70
4
9
$ACADVER
1
AC1014
9
$HANDSEED
5
FFFF
0
ENDSEC
0
SECTION
2
TABLES
0
TABLE
2
VPORT
5
8
100
AcDbSymbolTable
0
ENDTAB
0
TABLE
2
LTYPE
5
5
100
AcDbSymbolTable
0
LTYPE
5
14
100
AcDbSymbolTableRecord
100
AcDbLinetypeTableRecord
2
BYBLOCK
70
0
0
LTYPE
5
15
100
AcDbSymbolTableRecord
100
AcDbLinetypeTableRecord
2
BYLAYER
70
0
0
ENDTAB
0
TABLE
2
LAYER
5
2
100
AcDbSymbolTable
70
2
0
LAYER
5
50
100
AcDbSymbolTableRecord
100
AcDbLayerTableRecord
2
0
70
0
6
CONTINUOUS
0
ENDTAB
0
TABLE
2
STYLE
5
3
100
AcDbSymbolTable
70
1
0
STYLE
5
11
100
AcDbSymbolTableRecord
100
AcDbTextStyleTableRecord
2
STANDARD
70
0
0
ENDTAB
0
TABLE
2
VIEW
5
6
100
AcDbSymbolTable
70
0
0
ENDTAB
0
TABLE
2
UCS
5
7
100
AcDbSymbolTable
70
0
0
ENDTAB
0
TABLE
2
APPID
5
9
100
AcDbSymbolTable
70
2
0
APPID
5
12
100
AcDbSymbolTableRecord
100
AcDbRegAppTableRecord
2
ACAD
70
0
0
ENDTAB
0
TABLE
2
DIMSTYLE
5
A
100
AcDbSymbolTable
70
1
0
ENDTAB
0
TABLE
2
BLOCK_RECORD
5
1
100
AcDbSymbolTable
70
1
0
BLOCK_RECORD
5
1F
100
AcDbSymbolTableRecord
100
AcDbBlockTableRecord
2
*MODEL_SPACE
0
BLOCK_RECORD
5
1B
100
AcDbSymbolTableRecord
100
AcDbBlockTableRecord
2
*PAPER_SPACE
0
ENDTAB
0
ENDSEC
0
SECTION
2
BLOCKS
0
BLOCK
5
20
100
AcDbEntity
100
AcDbBlockBegin
2
*MODEL_SPACE
0
ENDBLK
5
21
100
AcDbEntity
100
AcDbBlockEnd
0
BLOCK
5
1C
100
AcDbEntity
100
AcDbBlockBegin
2
*PAPER_SPACE
0
ENDBLK
5
1D
100
AcDbEntity
100
AcDbBlockEnd
0
ENDSEC
0
SECTION
2
ENTITIES
0
LWPOLYLINE
5
100
100
AcDbEntity
8
0
100
AcDbPolyline
90
80
70
1
43
0.0
10
-252.89149999999984
20
-2.9999999999999987
42
-0.41421356237309453
10
-249.89149999999984
20
2.2204460492503131e-15
10
-223.61867081001265
20
-2.1094237467877974e-14
42
-0.41421356237308948
10
-220.61867081001267
20
-3.0000000000000071
10
-220.61867081001265
20
-8.9985170207565961
42
-0.19989439195086084
10
-221.50537968549406
20
-11.127836307061735
42
2.7370876487731874
10
-205.44193548387102
20
-9.8230407547386136
42
-0.24240616960837616
10
-206.70000000000002
20
-7.3805705358759255
10
-206.70000000000005
20
-3.000000000000008
42
-0.41421356237308959
10
-203.70000000000005
20
0
10
-186.19999999999999
20
2.2204460492503131e-14
42
-0.41421356237308943
10
-183.19999999999996
20
-2.9999999999999982
10
-183.19999999999996
20
-37
42
0.41421356237309503
10
-180.19999999999996
20
-40
10
-169.19999999999993
20
-40
42
0.41421356237309503
10
-166.19999999999999
20
-37
10
-166.19999999999999
20
-3.0000000000000089
42
-0.41421356237309476
10
-163.19999999999996
20
0
10
-99.199999999999989
20
6.106226635438361e-15
42
-0.41421356237309215
10
-96.199999999999974
20
-3.0000000000000071
10
-96.199999999999974
20
-63.799999999999997
42
0.41421356237309503
10
-93.19999999999996
20
-66.799999999999997
10
-86.999999999999972
20
-66.799999999999997
42
0.41421356237309503
10
-83.999999999999986
20
-63.799999999999997
10
-83.999999999999972
20
-3.0000000000000071
42
-0.41421356237309209
10
-80.999999999999957
20
0
10
-12.954451150103321
20
-3.8857805861880479e-15
42
-0.38779458240880071
10
-9.9668735637115073
20
-2.7272727272727337
42
0.36183793377330836
10
-2.7272727272727284
20
-9.9668735637115073
42
-0.38779458240879938
10
0
20
-12.95445115010331
10
-2.7755575615628914e-14
20
-285.49999999999949
42
-0.41421356237309759
10
-2.9999999999999893
20
-288.49999999999955
10
-37.000000000000156
20
-288.49999999999966
42
0.4142135623730942
10
-40.000000000000142
20
-291.49999999999966
10
-40.000000000000142
20
-302.49999999999966
42
0.41421356237309503
10
-37.000000000000142
20
-305.4999999999996
10
-3.0000000000000089
20
-305.4999999999996
42
-0.41421356237309476
10
0
20
-308.4999999999996
10
1.6653345369377348e-14
20
-325.99999999999977
42
-0.41421356237310014
10
-3.0000000000000071
20
-328.99999999999977
10
-17.380570535876174
20
-328.99999999999977
42
-0.24240616960840414
10
-19.823040754738891
20
-327.74193548387075
42
3.1243810515693191
10
-19.823040754738855
20
-342.25806451612891
42
-0.2424061696083564
10
-17.380570535876174
20
-340.99999999999977
10
-3.000000000000008
20
-340.99999999999977
42
-0.41421356237310014
10
0
20
-343.99999999999977
10
-7.2164496600635175e-15
20
-377.0455488498967
42
-0.38779458240878428
10
-2.7272727272727302
20
-380.03312643628851
42
0.3618379337733123
10
-9.9668735637115358
20
-387.27272727272725
42
-0.38779458240878956
10
-12.95445115010331
20
-390
10
-377.0455488498967
20
-390.00000000000006
42
-0.38779458240878473
10
-380.03312643628851
20
-387.27272727272725
42
0.36183793377330353
10
-387.27272727272725
20
-380.0331264362884
42
-0.38779458240878345
10
-390
20
-377.0455488498967
10
-390
20
-343.99999999999966
42
-0.41421356237310897
10
-387
20
-340.99999999999966
10
-372.6194294641241
20
-340.99999999999977
42
-0.2424061696083912
10
-370.17695924526146
20
-342.25806451612868
42
3.1243810515693191
10
-370.17695924526129
20
-327.74193548387063
42
-0.24240616960839848
10
-372.6194294641241
20
-328.99999999999966
10
-387
20
-328.99999999999966
42
-0.41421356237310897
10
-390
20
-325.99999999999966
10
-390
20
-308.49999999999972
42
-0.41421356237310197
10
-387
20
-305.49999999999966
10
-353
20
-305.49999999999966
42
0.41421356237309503
10
-350
20
-302.49999999999966
10
-350
20
-291.49999999999972
42
0.41421356237309503
10
-353
20
-288.49999999999972
10
-386.99999999999994
20
-288.49999999999977
42
-0.41421356237310542
10
-390
20
-285.49999999999977
10
-390
20
-12.954451150103321
42
-0.38779458240880982
10
-387.27272727272737
20
-9.9668735637115144
42
0.36183793377330947
10
-380.03312643628851
20
-2.7272727272727297
42
-0.38779458240878395
10
-377.0455488498967
20
0
10
-325.10849999999982
20
1.9984014443252818e-14
42
-0.41421356237311352
10
-322.10849999999988
20
-2.9999999999999982
10
-322.10849999999988
20
-65.929999999998586
42
0.41421356237309503
10
-319.10849999999988
20
-68.929999999998586
10
-255.89149999999987
20
-68.929999999998515
42
0.41421356237309503
10
-252.89149999999984
20
-65.929999999998515
0
CIRCLE
5
101
100
AcDbEntity
8
0
100
AcDbCircle
10
-379.99999985098862
20
-256.66666651765524
30
0
40
3.1499999999999773
210
0
220
-0
230
1
0
CIRCLE
5
102
100
AcDbEntity
8
0
100
AcDbCircle
10
-10.000000000000284
20
-256.66666696468963
30
0
40
3.1499999999999995
210
0
220
-0
230
1
0
CIRCLE
5
103
100
AcDbEntity
8
0
100
AcDbCircle
10
-195.00000000000014
20
-379.9999998509885
30
0
40
3.1500000000000128
210
0
220
-0
230
1
0
CIRCLE
5
104
100
AcDbEntity
8
0
100
AcDbCircle
10
-10.000000149011754
20
-133.58518722937134
30
0
40
3.1499999999999995
210
0
220
-0
230
1
0
CIRCLE
5
105
100
AcDbEntity
8
0
100
AcDbCircle
10
-379.99999985098862
20
-133.58518678233665
30
0
40
3.1499999999999773
210
0
220
-0
230
1
0
ENDSEC
0
SECTION
2
OBJECTS
0
DICTIONARY
5
C
100
AcDbDictionary
3
ACAD_GROUP
350
D
3
ACAD_MLINESTYLE
350
17
0
DICTIONARY
5
D
100
AcDbDictionary
0
DICTIONARY
5
1A
330
C
100
AcDbDictionary
0
DICTIONARY
5
17
100
AcDbDictionary
0
ENDSEC
0
EOF
