0
SECTION
2
HEADER
9
$INSUNITS
70
4
9
$ACADVER
1
AC1014
9
$HANDSEED
5
FFFF
0
ENDSEC
0
SECTION
2
TABLES
0
TABLE
2
VPORT
5
8
100
AcDbSymbolTable
0
ENDTAB
0
TABLE
2
LTYPE
5
5
100
AcDbSymbolTable
0
LTYPE
5
14
100
AcDbSymbolTableRecord
100
AcDbLinetypeTableRecord
2
BYBLOCK
70
0
0
LTYPE
5
15
100
AcDbSymbolTableRecord
100
AcDbLinetypeTableRecord
2
BYLAYER
70
0
0
ENDTAB
0
TABLE
2
LAYER
5
2
100
AcDbSymbolTable
70
2
0
LAYER
5
50
100
AcDbSymbolTableRecord
100
AcDbLayerTableRecord
2
0
70
0
6
CONTINUOUS
0
ENDTAB
0
TABLE
2
STYLE
5
3
100
AcDbSymbolTable
70
1
0
STYLE
5
11
100
AcDbSymbolTableRecord
100
AcDbTextStyleTableRecord
2
STANDARD
70
0
0
ENDTAB
0
TABLE
2
VIEW
5
6
100
AcDbSymbolTable
70
0
0
ENDTAB
0
TABLE
2
UCS
5
7
100
AcDbSymbolTable
70
0
0
ENDTAB
0
TABLE
2
APPID
5
9
100
AcDbSymbolTable
70
2
0
APPID
5
12
100
AcDbSymbolTableRecord
100
AcDbRegAppTableRecord
2
ACAD
70
0
0
ENDTAB
0
TABLE
2
DIMSTYLE
5
A
100
AcDbSymbolTable
70
1
0
ENDTAB
0
TABLE
2
BLOCK_RECORD
5
1
100
AcDbSymbolTable
70
1
0
BLOCK_RECORD
5
1F
100
AcDbSymbolTableRecord
100
AcDbBlockTableRecord
2
*MODEL_SPACE
0
BLOCK_RECORD
5
1B
100
AcDbSymbolTableRecord
100
AcDbBlockTableRecord
2
*PAPER_SPACE
0
ENDTAB
0
ENDSEC
0
SECTION
2
BLOCKS
0
BLOCK
5
20
100
AcDbEntity
100
AcDbBlockBegin
2
*MODEL_SPACE
0
ENDBLK
5
21
100
AcDbEntity
100
AcDbBlockEnd
0
BLOCK
5
1C
100
AcDbEntity
100
AcDbBlockBegin
2
*PAPER_SPACE
0
ENDBLK
5
1D
100
AcDbEntity
100
AcDbBlockEnd
0
ENDSEC
0
SECTION
2
ENTITIES
0
LWPOLYLINE
5
100
100
AcDbEntity
8
0
100
AcDbPolyline
90
8
70
1
43
0.0
10
139.69999999954405
20
0.99999905018334956
42
-0.41421356237309703
10
138.69999999954501
20
-9.4981763384960338e-07
10
-268.70000000045104
20
-9.502176651077221e-07
42
-0.41421356237310042
10
-269.70000000045201
20
0.99999904978133713
10
-269.70000000112191
20
679.99999904977756
42
-0.41421356237307422
10
-268.70000000112185
20
680.99999904977938
10
138.69999999887432
20
680.99999905017944
42
-0.41421356237318868
10
139.69999999887537
20
679.99999905018035
0
CIRCLE
5
101
100
AcDbEntity
8
0
100
AcDbCircle
10
-260.00000000059674
20
152.99999904979052
30
0
40
2.7499999999999893
210
5.2603681960425907e-32
220
1.034331033822884e-43
230
1
0
CIRCLE
5
102
100
AcDbEntity
8
0
100
AcDbCircle
10
-260.00000000084799
20
427.99999904940569
30
0
40
2.7499999999999893
210
5.2603681960425907e-32
220
1.034331033822884e-43
230
1
0
CIRCLE
5
103
100
AcDbEntity
8
0
100
AcDbCircle
10
-260.00000000059691
20
172.99999905017398
30
0
40
2.7499999999999893
210
5.2603681960425907e-32
220
1.034331033822884e-43
230
1
0
CIRCLE
5
104
100
AcDbEntity
8
0
100
AcDbCircle
10
-76.600000000982902
20
537.09999904996744
30
7.1054273576010019e-14
40
1.6499999999999935
210
-1.5506937001874505e-31
220
5.048709793414461e-29
230
1
0
CIRCLE
5
105
100
AcDbEntity
8
0
100
AcDbCircle
10
-76.600000001082947
20
638.89999904996807
30
7.1054273576010019e-14
40
1.6499999999999935
210
-1.5506937001874505e-31
220
5.048709793414461e-29
230
1
0
CIRCLE
5
106
100
AcDbEntity
8
0
100
AcDbCircle
10
-248.4000000009824
20
537.09999904979884
30
0
40
1.6500000000000112
210
4.2145856286507939e-32
220
5.04870979341448e-29
230
1
0
LWPOLYLINE
5
107
100
AcDbEntity
8
0
100
AcDbPolyline
90
8
70
1
43
0.0
10
-245.50000000108054
20
636.99999904980234
10
-245.50000000098419
20
538.99999904980166
42
0.41421356237310897
10
-244.00000000098274
20
537.49999904980314
10
-81.000000000983277
20
537.49999904996321
42
0.41421356237307422
10
-79.500000000984812
20
538.99999904996457
10
-79.500000001081062
20
636.99999904996525
42
0.41421356237308815
10
-81.000000001082498
20
638.49999904996378
10
-244.00000000108201
20
638.49999904980382
42
0.41421356237310897
0
CIRCLE
5
108
100
AcDbEntity
8
0
100
AcDbCircle
10
-248.40000000108245
20
638.89999904979936
30
0
40
1.6500000000000112
210
4.2145856286507939e-32
220
5.04870979341448e-29
230
1
0
CIRCLE
5
109
100
AcDbEntity
8
0
100
AcDbCircle
10
-260.00000000089148
20
447.99999904978813
30
0
40
2.7500000000000147
210
4.2476554809944829e-32
220
4.1837541403888731e-44
230
1
0
CIRCLE
5
110
100
AcDbEntity
8
0
100
AcDbCircle
10
-130.00000000110796
20
667.99999904991546
30
0
40
2.7500000000000071
210
4.2476554809944829e-32
220
4.1837541403888731e-44
230
1
0
CIRCLE
5
111
100
AcDbEntity
8
0
100
AcDbCircle
10
-1.1110401487712802e-09
20
667.99999905004302
30
0
40
2.7499999999999893
210
-3.5195389780056107e-31
220
-3.4665913554843039e-43
230
1
0
CIRCLE
5
112
100
AcDbEntity
8
0
100
AcDbCircle
10
129.99999999888817
20
667.99999905017057
30
0
40
2.7499999999999893
210
-3.5195389780056107e-31
220
-3.4665913554843039e-43
230
1
0
CIRCLE
5
113
100
AcDbEntity
8
0
100
AcDbCircle
10
-4.6686210453117383e-10
20
12.999999050045972
30
0
40
2.7499999999999893
210
-3.5195389780056107e-31
220
-3.4665913554843039e-43
230
1
0
CIRCLE
5
114
100
AcDbEntity
8
0
100
AcDbCircle
10
-130.00000000046455
20
12.999999049918358
30
0
40
2.7500000000000249
210
-1.5473867154122587e-31
220
-1.524107971174978e-43
230
1
0
CIRCLE
5
115
100
AcDbEntity
8
0
100
AcDbCircle
10
-260.00000000046384
20
12.999999049790816
30
0
40
2.7499999999999969
210
-3.5195389780056107e-31
220
-3.4665913554843039e-43
230
1
0
CIRCLE
5
116
100
AcDbEntity
8
0
100
AcDbCircle
10
129.99999999953235
20
12.999999050173656
30
0
40
2.7500000000000604
210
-1.5473867149530812e-31
220
-1.5241079707227081e-43
230
1
0
CIRCLE
5
117
100
AcDbEntity
8
0
100
AcDbCircle
10
-260.00000000110782
20
667.9999990497879
30
0
40
2.7500000000000147
210
4.2476554809944829e-32
220
4.1837541403888731e-44
230
1
0
LWPOLYLINE
5
118
100
AcDbEntity
8
0
100
AcDbPolyline
90
8
70
1
43
0.0
10
-240.00000000094687
20
504.99999904980763
10
-240.00000000054402
20
95.999999049810114
42
0.41421356237310197
10
-237.00000000054104
20
92.99999904981307
10
106.99999999945618
20
92.999999050151388
42
0.41421356237309159
10
109.9999999994531
20
95.999999050154301
10
109.9999999990504
20
504.99999905015181
42
0.41421356237309853
10
106.99999999904747
20
507.99999905014892
10
-237.0000000009498
20
507.99999904981053
42
0.41421356237309159
0
CIRCLE
5
119
100
AcDbEntity
8
0
100
AcDbCircle
10
129.9999999991046
20
447.99999905017097
30
0
40
2.7499999999999893
210
-3.5195389780056107e-31
220
-3.4665913554843039e-43
230
1
0
ENDSEC
0
SECTION
2
OBJECTS
0
DICTIONARY
5
C
100
AcDbDictionary
3
ACAD_GROUP
350
D
3
ACAD_MLINESTYLE
350
17
0
DICTIONARY
5
D
100
AcDbDictionary
0
DICTIONARY
5
1A
330
C
100
AcDbDictionary
0
DICTIONARY
5
17
100
AcDbDictionary
0
ENDSEC
0
EOF
