0
SECTION
2
HEADER
9
$INSUNITS
70
4
9
$ACADVER
1
AC1014
9
$HANDSEED
5
FFFF
0
ENDSEC
0
SECTION
2
TABLES
0
TABLE
2
VPORT
5
8
100
AcDbSymbolTable
0
ENDTAB
0
TABLE
2
LTYPE
5
5
100
AcDbSymbolTable
0
LTYPE
5
14
100
AcDbSymbolTableRecord
100
AcDbLinetypeTableRecord
2
BYBLOCK
70
0
0
LTYPE
5
15
100
AcDbSymbolTableRecord
100
AcDbLinetypeTableRecord
2
BYLAYER
70
0
0
ENDTAB
0
TABLE
2
LAYER
5
2
100
AcDbSymbolTable
70
2
0
LAYER
5
50
100
AcDbSymbolTableRecord
100
AcDbLayerTableRecord
2
0
70
0
6
CONTINUOUS
0
ENDTAB
0
TABLE
2
STYLE
5
3
100
AcDbSymbolTable
70
1
0
STYLE
5
11
100
AcDbSymbolTableRecord
100
AcDbTextStyleTableRecord
2
STANDARD
70
0
0
ENDTAB
0
TABLE
2
VIEW
5
6
100
AcDbSymbolTable
70
0
0
ENDTAB
0
TABLE
2
UCS
5
7
100
AcDbSymbolTable
70
0
0
ENDTAB
0
TABLE
2
APPID
5
9
100
AcDbSymbolTable
70
2
0
APPID
5
12
100
AcDbSymbolTableRecord
100
AcDbRegAppTableRecord
2
ACAD
70
0
0
ENDTAB
0
TABLE
2
DIMSTYLE
5
A
100
AcDbSymbolTable
70
1
0
ENDTAB
0
TABLE
2
BLOCK_RECORD
5
1
100
AcDbSymbolTable
70
1
0
BLOCK_RECORD
5
1F
100
AcDbSymbolTableRecord
100
AcDbBlockTableRecord
2
*MODEL_SPACE
0
BLOCK_RECORD
5
1B
100
AcDbSymbolTableRecord
100
AcDbBlockTableRecord
2
*PAPER_SPACE
0
ENDTAB
0
ENDSEC
0
SECTION
2
BLOCKS
0
BLOCK
5
20
100
AcDbEntity
100
AcDbBlockBegin
2
*MODEL_SPACE
0
ENDBLK
5
21
100
AcDbEntity
100
AcDbBlockEnd
0
BLOCK
5
1C
100
AcDbEntity
100
AcDbBlockBegin
2
*PAPER_SPACE
0
ENDBLK
5
1D
100
AcDbEntity
100
AcDbBlockEnd
0
ENDSEC
0
SECTION
2
ENTITIES
0
LWPOLYLINE
5
100
100
AcDbEntity
8
0
100
AcDbPolyline
90
24
70
1
43
0.0
10
-138.49999999979781
20
-9.4999986085170303
42
-0.41421356237310575
10
-139.49999999979678
20
-8.4999986085160373
10
-139.49999999977589
20
12.500002783612615
42
0.41421356237309631
10
-142.49999999977291
20
15.500002783615532
10
-163.49999861231097
20
15.500002783636535
42
-0.41421356237312951
10
-164.49999861230995
20
16.500002783637555
10
-164.4999986118948
20
433.50000278317088
42
-0.41421356237312623
10
-163.49999861189366
20
434.50000278316998
10
-142.49999999935619
20
434.50000278314565
42
0.41421356237314361
10
-139.49999999935275
20
437.50000278314258
10
-139.49999999933186
20
458.50000139575559
42
-0.41421356237303258
10
-138.49999999933078
20
459.50000139575457
10
268.50000000156876
20
459.50000139534865
42
-0.4142135623730846
10
269.5000000015678
20
458.50000139534762
10
269.50000000154688
20
437.50000278273427
42
0.41421356237309159
10
272.50000000154387
20
434.50000278273126
10
293.50000139375044
20
434.50000278271034
42
-0.4142135623730846
10
294.50000139374941
20
433.50000278270932
10
294.50000139333429
20
16.500002783177191
42
-0.41421356237313145
10
293.50000139333309
20
15.500002783178193
10
272.50000000112698
20
15.50000278320136
42
0.41421356237312412
10
269.50000000112374
20
12.500002783204373
10
269.50000000110293
20
-8.4999986089238924
42
-0.41421356237308105
10
268.50000000110185
20
-9.4999986089229509
0
CIRCLE
5
101
100
AcDbEntity
8
0
100
AcDbCircle
10
225.00000000111135
20
1.3911204632677254e-06
30
0
40
2.7499999999999973
210
1.97215226305253e-31
220
-1.9636754513278383e-43
230
1
0
CIRCLE
5
102
100
AcDbEntity
8
0
100
AcDbCircle
10
-155.00000139160704
20
389.50000278315775
30
0
40
2.7499999999999796
210
0
220
-0
230
1
0
CIRCLE
5
103
100
AcDbEntity
8
0
100
AcDbCircle
10
130.00000000156194
20
450.00000417500183
30
0
40
2.7499999999999796
210
0
220
-0
230
1
0
CIRCLE
5
104
100
AcDbEntity
8
0
100
AcDbCircle
10
130.00000000111174
20
1.3912152496686758e-06
30
0
40
2.7499999999999796
210
0
220
-0
230
1
0
CIRCLE
5
105
100
AcDbEntity
8
0
100
AcDbCircle
10
285.00000139347549
20
158.33333611652054
30
0
40
2.7499999999999973
210
1.97215226305253e-31
220
-1.9636754513278383e-43
230
1
0
CIRCLE
5
106
100
AcDbEntity
8
0
100
AcDbCircle
10
-155.00000139170496
20
291.16666944982461
30
0
40
2.7499999999999796
210
0
220
-0
230
1
0
CIRCLE
5
107
100
AcDbEntity
8
0
100
AcDbCircle
10
6.6144423271907706e-10
20
450.00000417513263
30
0
40
2.7499999999999796
210
0
220
-0
230
1
0
CIRCLE
5
108
100
AcDbEntity
8
0
100
AcDbCircle
10
-84.999999999788471
20
1.3914296204120546e-06
30
0
40
2.7499999999999796
210
0
220
-0
230
1
0
CIRCLE
5
109
100
AcDbEntity
8
0
100
AcDbCircle
10
2.1124435534147779e-10
20
1.3913448526636785e-06
30
0
40
2.7499999999999796
210
0
220
-0
230
1
0
CIRCLE
5
110
100
AcDbEntity
8
0
100
AcDbCircle
10
285.00000139370565
20
389.50000278271892
30
0
40
2.7499999999999973
210
1.97215226305253e-31
220
-1.9636754513278383e-43
230
1
0
CIRCLE
5
111
100
AcDbEntity
8
0
100
AcDbCircle
10
-155.0000013919346
20
60.500002783626314
30
0
40
2.7499999999999796
210
0
220
-0
230
1
0
CIRCLE
5
112
100
AcDbEntity
8
0
100
AcDbCircle
10
285.0000013936077
20
291.16666944938584
30
0
40
2.7499999999999973
210
1.97215226305253e-31
220
-1.9636754513278383e-43
230
1
0
CIRCLE
5
113
100
AcDbEntity
8
0
100
AcDbCircle
10
-155.0000013918372
20
158.33333611695937
30
0
40
2.7499999999999796
210
0
220
-0
230
1
0
CIRCLE
5
114
100
AcDbEntity
8
0
100
AcDbCircle
10
285.00000139337806
20
60.500002783187483
30
0
40
2.7499999999999973
210
1.97215226305253e-31
220
-1.9636754513278383e-43
230
1
0
CIRCLE
5
115
100
AcDbEntity
8
0
100
AcDbCircle
10
225.00000000156155
20
450.00000417490611
30
0
40
2.7499999999999973
210
1.97215226305253e-31
220
-1.9636754513278383e-43
230
1
0
CIRCLE
5
116
100
AcDbEntity
8
0
100
AcDbCircle
10
-84.999999999338272
20
450.00000417521818
30
0
40
2.7499999999999796
210
0
220
-0
230
1
0
ENDSEC
0
SECTION
2
OBJECTS
0
DICTIONARY
5
C
100
AcDbDictionary
3
ACAD_GROUP
350
D
3
ACAD_MLINESTYLE
350
17
0
DICTIONARY
5
D
100
AcDbDictionary
0
DICTIONARY
5
1A
330
C
100
AcDbDictionary
0
DICTIONARY
5
17
100
AcDbDictionary
0
ENDSEC
0
EOF
