0
SECTION
2
HEADER
9
$INSUNITS
70
4
9
$ACADVER
1
AC1014
9
$HANDSEED
5
FFFF
0
ENDSEC
0
SECTION
2
TABLES
0
TABLE
2
VPORT
5
8
100
AcDbSymbolTable
0
ENDTAB
0
TABLE
2
LTYPE
5
5
100
AcDbSymbolTable
0
LTYPE
5
14
100
AcDbSymbolTableRecord
100
AcDbLinetypeTableRecord
2
BYBLOCK
70
0
0
LTYPE
5
15
100
AcDbSymbolTableRecord
100
AcDbLinetypeTableRecord
2
BYLAYER
70
0
0
ENDTAB
0
TABLE
2
LAYER
5
2
100
AcDbSymbolTable
70
2
0
LAYER
5
50
100
AcDbSymbolTableRecord
100
AcDbLayerTableRecord
2
0
70
0
6
CONTINUOUS
0
ENDTAB
0
TABLE
2
STYLE
5
3
100
AcDbSymbolTable
70
1
0
STYLE
5
11
100
AcDbSymbolTableRecord
100
AcDbTextStyleTableRecord
2
STANDARD
70
0
0
ENDTAB
0
TABLE
2
VIEW
5
6
100
AcDbSymbolTable
70
0
0
ENDTAB
0
TABLE
2
UCS
5
7
100
AcDbSymbolTable
70
0
0
ENDTAB
0
TABLE
2
APPID
5
9
100
AcDbSymbolTable
70
2
0
APPID
5
12
100
AcDbSymbolTableRecord
100
AcDbRegAppTableRecord
2
ACAD
70
0
0
ENDTAB
0
TABLE
2
DIMSTYLE
5
A
100
AcDbSymbolTable
70
1
0
ENDTAB
0
TABLE
2
BLOCK_RECORD
5
1
100
AcDbSymbolTable
70
1
0
BLOCK_RECORD
5
1F
100
AcDbSymbolTableRecord
100
AcDbBlockTableRecord
2
*MODEL_SPACE
0
BLOCK_RECORD
5
1B
100
AcDbSymbolTableRecord
100
AcDbBlockTableRecord
2
*PAPER_SPACE
0
ENDTAB
0
ENDSEC
0
SECTION
2
BLOCKS
0
BLOCK
5
20
100
AcDbEntity
100
AcDbBlockBegin
2
*MODEL_SPACE
0
ENDBLK
5
21
100
AcDbEntity
100
AcDbBlockEnd
0
BLOCK
5
1C
100
AcDbEntity
100
AcDbBlockBegin
2
*PAPER_SPACE
0
ENDBLK
5
1D
100
AcDbEntity
100
AcDbBlockEnd
0
ENDSEC
0
SECTION
2
ENTITIES
0
LWPOLYLINE
5
100
100
AcDbEntity
8
0
100
AcDbPolyline
90
88
70
1
43
0.0
10
-138.50000000041967
20
-9.4999999301300129
42
-0.41421356237307844
10
-139.50000000041862
20
-8.4999999301290075
10
-139.5000000003979
20
12.500001461999588
42
0.41421356237311158
10
-142.50000000039486
20
15.500001462002642
10
-163.49999861293293
20
15.50000146202353
42
-0.41421356237309309
10
-164.49999861293193
20
16.500001462024461
10
-164.49999861284056
20
108.50000007416739
42
-0.41421356237309293
10
-159.49999861283561
20
113.5000000741624
10
-123.50000139250419
20
113.50000007412675
42
0.99999999999999989
10
-123.50000139249424
20
123.50000007412673
10
-159.49999861282572
20
123.50000007416241
42
-0.41421356237309398
10
-164.49999861282072
20
128.50000007416742
10
-164.49999861273699
20
212.83523689048789
42
-0.58297085655759651
10
-161.47100710188028
20
214.55022274190995
10
-147.01248789143278
20
205.8751112156219
42
0.13709194153382662
10
-145.97439418298578
20
205.59011777965344
10
-136.99089919482327
20
205.63100297628949
42
0.41288119914159943
10
-135.00000139241351
20
207.63098226368001
10
-135.00000139240615
20
215.00000007413752
42
-0.41421356237310542
10
-133.00000139240416
20
217.00000007413553
10
-102.00000139240423
20
217.00000007410478
42
0.41421356237309503
10
-100.00000139240223
20
219.00000007410279
10
-100.00000139235361
20
268.00000007410279
42
0.41421356237309503
10
-102.00000139235161
20
270.00000007410478
10
-133.00000139235163
20
270.00000007413564
42
-0.41421356237308982
10
-135.00000139234962
20
272.00000007413752
10
-135.00000139234163
20
280.00000007413752
42
0.41421356237309503
10
-137.00000139233964
20
282.00000007413951
10
-145.00000139233941
20
282.00000007414741
42
0.13593295954572404
10
-146.02899290319473
20
281.71498592557356
10
-161.47100710182283
20
272.4497774064177
42
-0.58297085655758152
10
-164.49999861267614
20
274.16476325784578
10
-164.49999861259244
20
358.50000007416725
42
-0.41421356237310025
10
-159.49999861258755
20
363.50000007416224
10
-123.50000139225511
20
363.5000000741266
42
0.99999999999999989
10
-123.50000139224545
20
373.50000007412677
10
-159.49999861257749
20
373.50000007416219
42
-0.41421356237309398
10
-164.49999861257257
20
378.50000007416725
10
-164.49999861251794
20
433.50000146155793
42
-0.41421356237314705
10
-163.49999861251675
20
434.50000146155696
10
-142.49999999997937
20
434.50000146153252
42
0.41421356237311063
10
-139.49999999997596
20
437.50000146152951
10
-139.49999999995515
20
458.50000007414252
42
-0.41421356237304302
10
-138.49999999995418
20
459.50000007414155
10
268.50000000094553
20
459.50000007373689
42
-0.41421356237304302
10
269.50000000094451
20
458.50000007373586
10
269.50000000092365
20
437.50000146112251
42
0.41421356237311241
10
272.50000000092081
20
434.50000146111955
10
293.50000139312721
20
434.50000146109863
42
-0.41421356237307422
10
294.50000139312624
20
433.50000146109772
10
294.50000139307167
20
378.50000007371187
42
-0.41421356237308671
10
289.50000139306673
20
373.50000007371682
10
253.50000139306729
20
373.50000007375257
42
0.99999999999999989
10
253.50000139305575
20
363.50000007375257
10
289.50000139305672
20
363.50000007371693
42
-0.41421356237308876
10
294.50000139305178
20
358.50000007371193
10
294.5000013929681
20
274.16476158958568
42
-0.58297085655760761
10
291.47100988211139
20
272.44977573816362
10
276.02899290382823
20
281.71498592515422
42
0.13593295954572721
10
275.00000139297345
20
282.00000007373012
10
267.00000139297367
20
282.00000007373814
42
0.41421356237310025
10
265.00000139297174
20
280.00000007374007
10
265.00000139296372
20
272.00000007374013
42
-0.41421356237309503
10
263.00000139296179
20
270.00000007374217
10
232.00000139296179
20
270.00000007377298
42
0.41421356237309503
10
230.00000139295986
20
268.00000007377497
10
230.00000139291109
20
219.00000007377497
42
0.41421356237309503
10
232.0000013929091
20
217.00000007377298
10
263.0000013929091
20
217.00000007374217
42
-0.41421356237310542
10
265.00000139290711
20
215.00000007374018
10
265.00000139289978
20
207.63098226328268
42
0.41288119914160459
10
266.99089919530559
20
205.63100297588818
10
275.97439418346801
20
205.5901177792343
42
0.13709194153381893
10
277.0124878919155
20
205.87511121520063
10
291.47100988205386
20
214.5502244092641
42
-0.58297085655759673
10
294.50000139290717
20
212.83523855783608
10
294.50000139282349
20
128.50000007371187
42
-0.41421356237309398
10
289.50000139281849
20
123.50000007371685
10
253.5000013928186
20
123.5000000737526
42
0.99999999999999989
10
253.50000139280866
20
113.50000007375263
10
289.50000139280866
20
113.50000007371689
42
-0.41421356237309087
10
294.50000139280365
20
108.50000007371194
10
294.50000139271231
20
16.500001461565507
42
-0.41421356237313145
10
293.50000139271117
20
15.50000146156651
10
272.50000000050517
20
15.500001461589719
42
0.41421356237312978
10
269.50000000050181
20
12.500001461592657
10
269.50000000048101
20
-8.4999999305356493
42
-0.41421356237306023
10
268.50000000048004
20
-9.4999999305346421
0
CIRCLE
5
101
100
AcDbEntity
8
0
100
AcDbCircle
10
-67.499999999590983
20
344.00000285356185
30
0
40
1.9999999999999929
210
1.4791141972893971e-31
220
-8.9754271280389487e-48
230
1
0
CIRCLE
5
102
100
AcDbEntity
8
0
100
AcDbCircle
10
-67.499999999592006
20
394.00000285355679
30
0
40
1.9999999999999929
210
1.4791141972893971e-31
220
-8.9754271280389487e-48
230
1
0
CIRCLE
5
103
100
AcDbEntity
8
0
100
AcDbCircle
10
-17.499999999592166
20
344.00000285356276
30
0
40
1.9999999999999973
210
-7.3955709864469857e-32
220
1.0097419586828951e-28
230
1
0
CIRCLE
5
104
100
AcDbEntity
8
0
100
AcDbCircle
10
-17.499999999593179
20
394.0000028535618
30
0
40
1.9999999999999973
210
-7.3955709864469857e-32
220
1.0097419586828951e-28
230
1
0
CIRCLE
5
105
100
AcDbEntity
8
0
100
AcDbCircle
10
122.50000000036188
20
323.0000028533982
30
0
40
1.9999999999999929
210
-2.4651903388483984e-32
220
-1.0097419586828949e-28
230
1
0
CIRCLE
5
106
100
AcDbEntity
8
0
100
AcDbCircle
10
122.5000000004533
20
415.00000285339814
30
0
40
2.0000000000000284
210
-2.4651903388483984e-32
220
-1.0097419586828949e-28
230
1
0
CIRCLE
5
107
100
AcDbEntity
8
0
100
AcDbCircle
10
7.500000000361986
20
323.00000285351246
30
0
40
2.0000000000000284
210
7.3955709764142492e-32
220
-1.0097419586828958e-28
230
1
0
CIRCLE
5
108
100
AcDbEntity
8
0
100
AcDbCircle
10
7.5000000004533973
20
415.0000028535124
30
0
40
1.9999999999999929
210
-1.2325951654111046e-31
220
-1.0097419586828939e-28
230
1
0
LWPOLYLINE
5
109
100
AcDbEntity
8
0
100
AcDbPolyline
90
8
70
1
43
0.0
10
203.94610386092015
20
30.000001388633919
10
203.94610386092214
20
32.000001388633947
42
0.41421356237310197
10
200.94610386092512
20
35.000001388636939
10
163.00620236632517
20
35.000001388674661
42
0.41421356237310197
10
160.00620236632219
20
32.000001388677575
10
160.0062023663202
20
30.000001388677543
42
0.41421356237308771
10
163.00620236631721
20
27.000001388674697
10
200.94610386091716
20
27.000001388636974
42
0.41421356237308815
0
LWPOLYLINE
5
110
100
AcDbEntity
8
0
100
AcDbPolyline
90
8
70
1
43
0.0
10
-124.49999999998668
20
429.00000146155048
10
-124.49999999997775
20
438.0000014615614
42
0.41421356237338119
10
-126.49999999997772
20
440.00000146156339
10
-135.49999999997772
20
440.00000146156344
42
0.41421356237280366
10
-137.49999999997772
20
438.00000146156543
10
-137.49999999998667
20
429.00000146156344
42
0.41421356237308982
10
-135.49999999998872
20
427.00000146156151
10
-126.49999999998869
20
427.00000146155247
42
0.41421356237309503
0
LWPOLYLINE
5
111
100
AcDbEntity
8
0
100
AcDbPolyline
90
8
70
1
43
0.0
10
265.49999999873842
20
440.00000146116304
10
256.49999999873836
20
440.00000146117202
42
0.41421356237309503
10
254.49999999873643
20
438.00000146117395
10
254.49999999872745
20
429.00000146117401
42
0.41421356237309503
10
256.49999999872546
20
427.00000146117202
10
265.49999999872546
20
427.00000146116304
42
0.41421356237310542
10
267.49999999872745
20
429.0000014611611
10
267.49999999873637
20
438.00000146116105
42
0.41421356237308982
0
LWPOLYLINE
5
112
100
AcDbEntity
8
0
100
AcDbPolyline
90
4
70
1
43
0.0
10
34.999999999638717
20
52.000000069696561
10
9.9999999996387423
20
52.000000069721395
42
0.99999999999999989
10
9.999999999624837
20
38.00000006972131
10
34.999999999624826
20
38.000000069696469
42
0.99999999999999989
0
CIRCLE
5
113
100
AcDbEntity
8
0
100
AcDbCircle
10
193.50000139290808
20
213.5000000738118
30
0
40
2.2499999999999964
210
0
220
-0
230
1
0
CIRCLE
5
114
100
AcDbEntity
8
0
100
AcDbCircle
10
-84.849998607250711
20
53.500000074088447
30
0
40
2.2499999999999787
210
-1.9721522630525295e-31
220
1.9593922031766143e-43
230
1
0
CIRCLE
5
115
100
AcDbEntity
8
0
100
AcDbCircle
10
43.500001392784
20
88.500000073960834
30
0
40
2.2499999999999964
210
0
220
-0
230
1
0
CIRCLE
5
116
100
AcDbEntity
8
0
100
AcDbCircle
10
193.50000139278387
20
88.500000073811805
30
0
40
2.2499999999999964
210
0
220
-0
230
1
0
CIRCLE
5
117
100
AcDbEntity
8
0
100
AcDbCircle
10
-84.849998607201059
20
103.50000007408835
30
0
40
2.2500000000000142
210
-2.4651903288156624e-32
220
2.4492402539707684e-44
230
1
0
CIRCLE
5
118
100
AcDbEntity
8
0
100
AcDbCircle
10
193.50000139295773
20
263.50000007381175
30
0
40
2.2499999999999964
210
0
220
-0
230
1
0
CIRCLE
5
119
100
AcDbEntity
8
0
100
AcDbCircle
10
43.500001392908189
20
213.50000007396085
30
0
40
2.2499999999999964
210
0
220
-0
230
1
0
CIRCLE
5
120
100
AcDbEntity
8
0
100
AcDbCircle
10
-36.499998607250674
20
53.500000074040415
30
0
40
2.2499999999999787
210
-1.9721522630525295e-31
220
1.9593922031766143e-43
230
1
0
CIRCLE
5
121
100
AcDbEntity
8
0
100
AcDbCircle
10
43.500001392833667
20
138.50000007396085
30
0
40
2.2499999999999964
210
0
220
-0
230
1
0
CIRCLE
5
122
100
AcDbEntity
8
0
100
AcDbCircle
10
193.50000139283352
20
138.5000000738118
30
0
40
2.2499999999999964
210
0
220
-0
230
1
0
CIRCLE
5
123
100
AcDbEntity
8
0
100
AcDbCircle
10
-36.499998607201007
20
103.50000007404032
30
0
40
2.2499999999999787
210
-1.9721522630525295e-31
220
1.9593922031766143e-43
230
1
0
CIRCLE
5
124
100
AcDbEntity
8
0
100
AcDbCircle
10
43.500001392957856
20
263.50000007396079
30
0
40
2.2499999999999964
210
0
220
-0
230
1
0
CIRCLE
5
125
100
AcDbEntity
8
0
100
AcDbCircle
10
-155.00000139245958
20
158.33333479534622
30
0
40
2.7499999999999858
210
-1.0031475357772335e-40
220
-1.0097419586828951e-28
230
1
0
CIRCLE
5
126
100
AcDbEntity
8
0
100
AcDbCircle
10
285.00000139298498
20
291.16666812777413
30
0
40
2.7500000000000036
210
0
220
-0
230
1
0
CIRCLE
5
127
100
AcDbEntity
8
0
100
AcDbCircle
10
-4.106581741325499e-10
20
6.9732379870401928e-08
30
0
40
2.7499999999999858
210
-1.0031475357772335e-40
220
-1.0097419586828951e-28
230
1
0
CIRCLE
5
128
100
AcDbEntity
8
0
100
AcDbCircle
10
3.8138381341923377e-11
20
450.00000285352002
30
0
40
2.7499999999999858
210
-1.0031475357772335e-40
220
-1.0097419586828951e-28
230
1
0
CIRCLE
5
129
100
AcDbEntity
8
0
100
AcDbCircle
10
130.00000000048985
20
6.960306109249359e-08
30
0
40
2.7499999999999805
210
2.4651903288156619e-32
220
-2.4492402539707679e-44
230
1
0
CIRCLE
5
130
100
AcDbEntity
8
0
100
AcDbCircle
10
130.00000000093866
20
450.00000285338956
30
0
40
2.7499999999999805
210
2.4651903288156619e-32
220
-2.4492402539707679e-44
230
1
0
CIRCLE
5
131
100
AcDbEntity
8
0
100
AcDbCircle
10
285.00000139275602
20
60.500001461575863
30
0
40
2.7500000000000036
210
0
220
-0
230
1
0
CIRCLE
5
132
100
AcDbEntity
8
0
100
AcDbCircle
10
-85.000000000410381
20
6.9816863401683804e-08
30
0
40
2.7499999999999858
210
-1.0031475357772335e-40
220
-1.0097419586828951e-28
230
1
0
CIRCLE
5
133
100
AcDbEntity
8
0
100
AcDbCircle
10
-84.999999999961602
20
450.00000285360534
30
0
40
2.7499999999999858
210
-1.0031475357772335e-40
220
-1.0097419586828951e-28
230
1
0
CIRCLE
5
134
100
AcDbEntity
8
0
100
AcDbCircle
10
-155.00000139255673
20
60.500001462013273
30
0
40
2.7499999999999858
210
-1.0031475357772335e-40
220
-1.0097419586828951e-28
230
1
0
CIRCLE
5
135
100
AcDbEntity
8
0
100
AcDbCircle
10
-155.00000139223016
20
389.50000146154468
30
0
40
2.7499999999999858
210
-1.0031475357772335e-40
220
-1.0097419586828951e-28
230
1
0
CIRCLE
5
136
100
AcDbEntity
8
0
100
AcDbCircle
10
225.00000000048954
20
6.9508629962911073e-08
30
0
40
2.7500000000000036
210
0
220
-0
230
1
0
CIRCLE
5
137
100
AcDbEntity
8
0
100
AcDbCircle
10
225.00000000093831
20
450.00000285329418
30
0
40
2.7500000000000036
210
0
220
-0
230
1
0
CIRCLE
5
138
100
AcDbEntity
8
0
100
AcDbCircle
10
285.00000139308258
20
389.50000146110722
30
0
40
2.7500000000000036
210
0
220
-0
230
1
0
CIRCLE
5
139
100
AcDbEntity
8
0
100
AcDbCircle
10
285.00000139285311
20
158.33333479490881
30
0
40
2.7500000000000036
210
0
220
-0
230
1
0
CIRCLE
5
140
100
AcDbEntity
8
0
100
AcDbCircle
10
-155.00000139232779
20
291.1666681282116
30
0
40
2.7499999999999858
210
-1.0031475357772335e-40
220
-1.0097419586828951e-28
230
1
0
ENDSEC
0
SECTION
2
OBJECTS
0
DICTIONARY
5
C
100
AcDbDictionary
3
ACAD_GROUP
350
D
3
ACAD_MLINESTYLE
350
17
0
DICTIONARY
5
D
100
AcDbDictionary
0
DICTIONARY
5
1A
330
C
100
AcDbDictionary
0
DICTIONARY
5
17
100
AcDbDictionary
0
ENDSEC
0
EOF
