0
SECTION
2
HEADER
9
$INSUNITS
70
4
9
$ACADVER
1
AC1014
9
$HANDSEED
5
FFFF
0
ENDSEC
0
SECTION
2
TABLES
0
TABLE
2
VPORT
5
8
100
AcDbSymbolTable
0
ENDTAB
0
TABLE
2
LTYPE
5
5
100
AcDbSymbolTable
0
LTYPE
5
14
100
AcDbSymbolTableRecord
100
AcDbLinetypeTableRecord
2
BYBLOCK
70
0
0
LTYPE
5
15
100
AcDbSymbolTableRecord
100
AcDbLinetypeTableRecord
2
BYLAYER
70
0
0
ENDTAB
0
TABLE
2
LAYER
5
2
100
AcDbSymbolTable
70
2
0
LAYER
5
50
100
AcDbSymbolTableRecord
100
AcDbLayerTableRecord
2
0
70
0
6
CONTINUOUS
0
ENDTAB
0
TABLE
2
STYLE
5
3
100
AcDbSymbolTable
70
1
0
STYLE
5
11
100
AcDbSymbolTableRecord
100
AcDbTextStyleTableRecord
2
STANDARD
70
0
0
ENDTAB
0
TABLE
2
VIEW
5
6
100
AcDbSymbolTable
70
0
0
ENDTAB
0
TABLE
2
UCS
5
7
100
AcDbSymbolTable
70
0
0
ENDTAB
0
TABLE
2
APPID
5
9
100
AcDbSymbolTable
70
2
0
APPID
5
12
100
AcDbSymbolTableRecord
100
AcDbRegAppTableRecord
2
ACAD
70
0
0
ENDTAB
0
TABLE
2
DIMSTYLE
5
A
100
AcDbSymbolTable
70
1
0
ENDTAB
0
TABLE
2
BLOCK_RECORD
5
1
100
AcDbSymbolTable
70
1
0
BLOCK_RECORD
5
1F
100
AcDbSymbolTableRecord
100
AcDbBlockTableRecord
2
*MODEL_SPACE
0
BLOCK_RECORD
5
1B
100
AcDbSymbolTableRecord
100
AcDbBlockTableRecord
2
*PAPER_SPACE
0
ENDTAB
0
ENDSEC
0
SECTION
2
BLOCKS
0
BLOCK
5
20
100
AcDbEntity
100
AcDbBlockBegin
2
*MODEL_SPACE
0
ENDBLK
5
21
100
AcDbEntity
100
AcDbBlockEnd
0
BLOCK
5
1C
100
AcDbEntity
100
AcDbBlockBegin
2
*PAPER_SPACE
0
ENDBLK
5
1D
100
AcDbEntity
100
AcDbBlockEnd
0
ENDSEC
0
SECTION
2
ENTITIES
0
LWPOLYLINE
5
100
100
AcDbEntity
8
0
100
AcDbPolyline
90
24
70
1
43
0.0
10
164.49999861252135
20
16.500001392292134
42
-0.41421356237308787
10
163.49999861252232
20
15.500001392291141
10
142.4999999999842
20
15.500001392270233
42
0.41421356237309959
10
139.49999999998721
20
12.500001392267261
10
139.50000000000816
20
-8.4999999998612452
42
-0.41421356237309598
10
138.50000000000909
20
-9.4999999998623252
10
-268.50000000089051
20
-9.5000000002665068
42
-0.41421356237309731
10
-269.50000000089153
20
-8.5000000002675158
10
-269.50000000091228
20
12.500001391860689
42
0.41421356237311807
10
-272.50000000091563
20
15.500001391857694
10
-293.50000139312169
20
15.500001391834548
42
-0.41421356237311063
10
-294.50000139312283
20
16.50000139183355
10
-294.50000139353654
20
433.50000139136517
42
-0.4142135623730222
10
-293.50000139353745
20
434.50000139136625
10
-272.50000000133093
20
434.50000139138706
42
0.41421356237310197
10
-269.50000000133389
20
437.50000139139001
10
-269.50000000135481
20
458.50000000400343
42
-0.41421356237311585
10
-268.50000000135583
20
459.50000000400451
10
138.499999999544
20
459.50000000440872
42
-0.41421356237311063
10
139.49999999954497
20
458.50000000440963
10
139.49999999956572
20
437.50000139179667
42
0.41421356237315404
10
142.49999999956924
20
434.50000139179969
10
163.49999861210659
20
434.50000139182413
42
-0.41421356237311585
10
164.49999861210782
20
433.50000139182498
0
LWPOLYLINE
5
101
100
AcDbEntity
8
0
100
AcDbPolyline
90
4
70
1
43
0.0
10
-173.8891507794325
20
148.55319156320431
42
-0.21081851067789067
10
-198.11085200625405
20
148.55319156318041
42
-0.81116213710585094
10
-197.38420096945299
20
152.00000007381945
10
-174.61580181624069
20
152.00000007384244
42
-0.81116213710584528
0
LWPOLYLINE
5
102
100
AcDbEntity
8
0
100
AcDbPolyline
90
8
70
1
43
0.0
10
-214.82959234769484
20
184.29787241422756
42
-0.022464566749276535
10
-213.96881283995378
20
186.85106390359013
42
-0.30952891963310813
10
-212.2906841531306
20
188.00000007380453
10
-159.70931863263462
20
188.00000007385677
42
-0.30952891963309653
10
-158.0311899458091
20
186.85106390364575
42
-0.022464566749276868
10
-157.17041043806304
20
184.29787241428485
42
-0.49889290432548944
10
-158.90018589534975
20
182.00000007385765
10
-213.09981689040356
20
182.0000000738037
42
-0.49889290432548472
0
LWPOLYLINE
5
103
100
AcDbEntity
8
0
100
AcDbPolyline
90
4
70
1
43
0.0
10
-198.1108520063087
20
203.44680858445673
42
-0.2108185106778909
10
-173.88915077948738
20
203.446808584481
42
-0.81116213710590157
10
-174.6158018162885
20
200.0000000738419
10
-197.38420096950068
20
200.00000007381936
42
-0.81116213710581819
0
LWPOLYLINE
5
104
100
AcDbEntity
8
0
100
AcDbPolyline
90
8
70
1
43
0.0
10
-164.02734461239072
20
196.42553198874609
42
-0.027689946411779211
10
-161.90478511010954
20
193.8723404993865
42
-0.61620141256505112
10
-163.35049808707342
20
191.00000007385316
10
-208.64950469869785
20
191.00000007380825
42
-0.6162014125650862
10
-210.0952176756673
20
193.87234049933875
42
-0.027689946411777435
10
-207.97265817339127
20
196.4255319887024
42
-0.20840918366134809
10
-206.65429876656174
20
197.0000000738101
10
-165.34570401922139
20
197.0000000738512
42
-0.20840918366142733
0
LWPOLYLINE
5
105
100
AcDbEntity
8
0
100
AcDbPolyline
90
8
70
1
43
0.0
10
-163.35049808704352
20
161.00000007385336
42
-0.61620141256509031
10
-161.90478511007396
20
158.12765964832278
42
-0.027689946411778212
10
-164.02734461235008
20
155.57446815895909
42
-0.2084091836613855
10
-165.34570401917964
20
155.00000007385125
10
-206.65429876652001
20
155.00000007381021
42
-0.20840918366135597
10
-207.97265817335057
20
155.57446815891521
42
-0.027689946411780991
10
-210.09521767563186
20
158.12765964827506
42
-0.61620141256505367
10
-208.64950469866798
20
161.00000007380825
0
CIRCLE
5
106
100
AcDbEntity
8
0
100
AcDbCircle
10
-161.00000139284583
20
151.00000007385557
30
0
40
1.9999999999999929
210
1.2326079123966299e-32
220
4.9303806574429898e-32
230
1
0
LWPOLYLINE
5
107
100
AcDbEntity
8
0
100
AcDbPolyline
90
8
70
1
43
0.0
10
-215.97282747424964
20
174.72340432912006
42
-0.02128623625220883
10
-215.97282747425209
20
177.27659581848187
42
-0.40180050307870641
10
-214.17445790937103
20
179.00000007380274
10
-157.82554487637628
20
179.0000000738587
42
-0.40180050307868592
10
-156.02717531149176
20
177.27659581854147
42
-0.021286236252209163
10
-156.0271753114892
20
174.72340432917969
42
-0.40180050307869519
10
-157.82554487637037
20
173.0000000738587
10
-214.17445790936506
20
173.00000007380279
42
-0.40180050307868337
0
CIRCLE
5
108
100
AcDbEntity
8
0
100
AcDbCircle
10
-211.00000139289551
20
201.00000007380575
30
0
40
1.9999999999999929
210
1.2326079123966299e-32
220
4.9303806574429898e-32
230
1
0
CIRCLE
5
109
100
AcDbEntity
8
0
100
AcDbCircle
10
-161.00000139289551
20
201.00000007385543
30
0
40
1.9999999999999929
210
1.2326079123966299e-32
220
4.9303806574429898e-32
230
1
0
LWPOLYLINE
5
110
100
AcDbEntity
8
0
100
AcDbPolyline
90
8
70
1
43
0.0
10
-157.17041043804653
20
167.70212773343388
42
-0.022464566749276868
10
-158.03118994578753
20
165.14893624407125
42
-0.30952891963312595
10
-159.70931863261072
20
164.00000007385688
10
-212.29068415310672
20
164.00000007380467
42
-0.30952891963308043
10
-213.96881283993224
20
165.14893624401569
42
-0.022464566749278089
10
-214.8295923476783
20
167.70212773337676
42
-0.49889290432547112
10
-213.09981689039162
20
170.00000007380382
10
-158.90018589533781
20
170.00000007385765
42
-0.49889290432549843
0
CIRCLE
5
111
100
AcDbEntity
8
0
100
AcDbCircle
10
-211.00000139284583
20
151.00000007380589
30
0
40
1.9999999999999929
210
1.2326079123966299e-32
220
4.9303806574429898e-32
230
1
0
LWPOLYLINE
5
112
100
AcDbEntity
8
0
100
AcDbPolyline
90
8
70
1
43
0.0
10
71.329590954441045
20
360.70213051314488
42
-0.022464566749279422
10
70.468811446700087
20
358.14893902378236
42
-0.30952891963316143
10
68.790682759876887
20
357.00000285356793
10
16.209317239380887
20
357.0000028535157
42
-0.3095289196331073
10
14.53118855255515
20
358.1489390237266
42
-0.02246456674927598
10
13.670409044809302
20
360.70213051308781
42
-0.49889290432546074
10
15.40018450209601
20
363.00000285351484
10
69.599815497149777
20
363.00000285356867
42
-0.4988929043255203
0
LWPOLYLINE
5
113
100
AcDbEntity
8
0
100
AcDbPolyline
90
4
70
1
43
0.0
10
30.389149386180421
20
396.44681136416438
42
-0.21081851067788046
10
54.61085061300021
20
396.44681136419206
42
-0.81116213710590712
10
53.884199576199151
20
393.00000285355293
10
31.115800422986943
20
393.00000285353053
42
-0.81116213710582852
0
LWPOLYLINE
5
114
100
AcDbEntity
8
0
100
AcDbPolyline
90
8
70
1
43
0.0
10
72.472826080995702
20
370.27659859825235
42
-0.021286236252210718
10
72.472826080998345
20
367.72340710889074
42
-0.40180050307873871
10
70.674456516117232
20
366.00000285356975
10
14.325543483122551
20
366.00000285351382
42
-0.40180050307871962
10
12.527173918237866
20
367.72340710883122
42
-0.021286236252204611
10
12.527173918235452
20
370.27659859819289
42
-0.40180050307869347
10
14.325543483116618
20
372.00000285351382
10
70.674456516111348
20
372.00000285356975
42
-0.40180050307869436
0
LWPOLYLINE
5
115
100
AcDbEntity
8
0
100
AcDbPolyline
90
8
70
1
43
0.0
10
20.527343219136746
20
348.57447093862589
42
-0.027689946411778989
10
18.404783716855782
20
351.12766242798608
42
-0.6162014125650388
10
19.850496693819597
20
354.00000285351928
10
65.149503305444085
20
354.00000285356447
42
-0.61620141256507821
10
66.595216282413773
20
351.12766242803377
42
-0.027689946411782212
10
64.472656780137584
20
348.57447093867017
42
-0.20840918366136768
10
63.154297373307998
20
348.00000285356225
10
21.845702625967611
20
348.00000285352121
42
-0.20840918366137834
0
LWPOLYLINE
5
116
100
AcDbEntity
8
0
100
AcDbPolyline
90
8
70
1
43
0.0
10
18.404783716820408
20
386.87234327904969
42
-0.027689946411773213
10
20.527343219096327
20
389.42553476841334
42
-0.20840918366141228
10
21.845702625925885
20
390.00000285352115
10
63.154297373266246
20
390.00000285356214
42
-0.20840918366143174
10
64.472656780096415
20
389.42553476845688
42
-0.027689946411783212
10
66.595216282378104
20
386.87234327909749
42
-0.61620141256505645
10
65.149503305414228
20
384.00000285356418
10
19.850496693789776
20
384.00000285351916
42
-0.61620141256507643
0
LWPOLYLINE
5
117
100
AcDbEntity
8
0
100
AcDbPolyline
90
8
70
1
43
0.0
10
13.67040904479277
20
377.29787519393858
42
-0.022464566749272868
10
14.531188552533884
20
379.8510666833011
42
-0.3095289196331128
10
16.209317239357112
20
381.00000285351553
10
68.79068275985297
20
381.00000285356776
42
-0.30952891963311008
10
70.468811446678259
20
379.85106668335663
42
-0.022464566749279422
10
71.329590954424503
20
377.29787519399588
42
-0.49889290432549704
10
69.599815497137882
20
375.00000285356867
10
15.400184502084073
20
375.00000285351473
42
-0.49889290432551503
0
LWPOLYLINE
5
118
100
AcDbEntity
8
0
100
AcDbPolyline
90
4
70
1
43
0.0
10
53.884199576246949
20
345.00000285355327
42
-0.81116213710585061
10
54.610850613056613
20
341.55319434291198
42
-0.21081851067790133
10
30.389149386233552
20
341.55319434289163
42
-0.81116213710585938
10
31.115800423034649
20
345.00000285353042
0
LWPOLYLINE
5
119
100
AcDbEntity
8
0
100
AcDbPolyline
90
4
70
1
43
0.0
10
91.499998607319696
20
39.9000001215419
10
91.499998607243
20
117.100000121542
42
0.99999999999999989
10
87.499998607243015
20
117.10000012153806
10
87.499998607319725
20
39.900000121537929
42
0.99999999999999989
0
LWPOLYLINE
5
120
100
AcDbEntity
8
0
100
AcDbPolyline
90
4
70
1
43
0.0
10
56.499998607319732
20
39.900000121507155
10
56.499998607243036
20
117.10000012150722
42
0.99999999999999989
10
52.499998607243057
20
117.10000012150324
10
52.499998607319753
20
39.900000121503183
42
0.99999999999999989
0
LWPOLYLINE
5
121
100
AcDbEntity
8
0
100
AcDbPolyline
90
4
70
1
43
0.0
10
98.499998607319696
20
39.900000121548864
10
98.499998607242986
20
117.10000012154896
42
0.99999999999999989
10
94.499998607243015
20
117.10000012154498
10
94.499998607319711
20
39.900000121544892
42
0.99999999999999989
0
LWPOLYLINE
5
122
100
AcDbEntity
8
0
100
AcDbPolyline
90
4
70
1
43
0.0
10
35.499998607319753
20
39.900000121486336
10
35.499998607243057
20
117.10000012148637
42
0.99999999999999989
10
31.499998607243079
20
117.1000001214824
10
31.499998607319775
20
39.900000121482364
42
0.99999999999999989
0
LWPOLYLINE
5
123
100
AcDbEntity
8
0
100
AcDbPolyline
90
4
70
1
43
0.0
10
49.499998607319739
20
39.900000121500192
10
49.499998607243043
20
117.1000001215003
42
0.99999999999999989
10
45.499998607243064
20
117.10000012149632
10
45.49999860731976
20
39.90000012149622
42
0.99999999999999989
0
LWPOLYLINE
5
124
100
AcDbEntity
8
0
100
AcDbPolyline
90
4
70
1
43
0.0
10
84.499998607319711
20
39.900000121534937
10
84.499998607243015
20
117.10000012153503
42
0.99999999999999989
10
80.499998607243015
20
117.10000012153105
10
80.499998607319725
20
39.900000121531036
42
0.99999999999999989
0
LWPOLYLINE
5
125
100
AcDbEntity
8
0
100
AcDbPolyline
90
4
70
1
43
0.0
10
63.499998607319725
20
39.900000121514118
10
63.499998607243029
20
117.10000012151419
42
0.99999999999999989
10
59.49999860724305
20
117.10000012151021
10
59.499998607319746
20
39.900000121510146
42
0.99999999999999989
0
LWPOLYLINE
5
126
100
AcDbEntity
8
0
100
AcDbPolyline
90
4
70
1
43
0.0
10
28.49999860731976
20
39.900000121479373
10
28.499998607243064
20
117.10000012147944
42
0.99999999999999989
10
24.499998607243086
20
117.10000012147546
10
24.499998607319782
20
39.900000121475401
42
0.99999999999999989
0
LWPOLYLINE
5
127
100
AcDbEntity
8
0
100
AcDbPolyline
90
4
70
1
43
0.0
10
70.499998607319711
20
39.900000121521082
10
70.499998607243015
20
117.10000012152111
42
0.99999999999999989
10
66.499998607243043
20
117.10000012151717
10
66.499998607319739
20
39.90000012151711
42
0.99999999999999989
0
LWPOLYLINE
5
128
100
AcDbEntity
8
0
100
AcDbPolyline
90
4
70
1
43
0.0
10
42.499998607319746
20
39.900000121493228
10
42.49999860724305
20
117.10000012149334
42
0.99999999999999989
10
38.499998607243072
20
117.10000012148936
10
38.499998607319768
20
39.900000121489327
42
0.99999999999999989
0
LWPOLYLINE
5
129
100
AcDbEntity
8
0
100
AcDbPolyline
90
4
70
1
43
0.0
10
77.499998607319711
20
39.900000121528045
10
77.499998607243015
20
117.10000012152807
42
0.99999999999999989
10
73.499998607243043
20
117.10000012152409
10
73.499998607319725
20
39.900000121524073
42
0.99999999999999989
0
CIRCLE
5
130
100
AcDbEntity
8
0
100
AcDbCircle
10
-285.00000139349282
20
389.50000139137489
30
2.5243548967072378e-28
40
2.7500000000000036
210
-7.1714499817141806e-32
220
-2.8685851078873773e-31
230
1
0
CIRCLE
5
131
100
AcDbEntity
8
0
100
AcDbCircle
10
-130.00000000090034
20
-1.2903456081403419e-10
30
0
40
2.7499999999999769
210
-7.1714499815191199e-32
220
-2.8685851079322189e-31
230
1
0
CIRCLE
5
132
100
AcDbEntity
8
0
100
AcDbCircle
10
155.00000139191744
20
291.16666805847888
30
0
40
2.7499999999999858
210
-7.1714499815841401e-32
220
-2.8685851079169727e-31
230
1
0
CIRCLE
5
133
100
AcDbEntity
8
0
100
AcDbCircle
10
155.00000139181989
20
389.50000139181191
30
2.5243548967072378e-28
40
2.7499999999999858
210
-7.1714499815841401e-32
220
-2.8685851079169727e-31
230
1
0
CIRCLE
5
134
100
AcDbEntity
8
0
100
AcDbCircle
10
155.00000139214632
20
60.500001392280822
30
0
40
2.7499999999999858
210
-7.1714499815841401e-32
220
-2.8685851079169727e-31
230
1
0
CIRCLE
5
135
100
AcDbEntity
8
0
100
AcDbCircle
10
84.999999999551363
20
450.00000278387256
30
0
40
2.7499999999999858
210
-7.1714499815841401e-32
220
-2.8685851079169727e-31
230
1
0
CIRCLE
5
136
100
AcDbEntity
8
0
100
AcDbCircle
10
-285.00000139339528
20
291.16666805804186
30
0
40
2.7500000000000036
210
-7.1714499817141806e-32
220
-2.8685851078873773e-31
230
1
0
CIRCLE
5
137
100
AcDbEntity
8
0
100
AcDbCircle
10
-4.4842352053819923e-10
20
450.00000278378735
30
0
40
2.7499999999999858
210
-7.1714499815841401e-32
220
-2.8685851079169727e-31
230
1
0
CIRCLE
5
138
100
AcDbEntity
8
0
100
AcDbCircle
10
-285.00000139316649
20
60.500001391843838
30
0
40
2.7500000000000036
210
-7.1714499817141806e-32
220
-2.8685851078873773e-31
230
1
0
CIRCLE
5
139
100
AcDbEntity
8
0
100
AcDbCircle
10
84.999999999999886
20
8.4554585555451922e-11
30
0
40
2.7499999999999858
210
-7.1714499815841401e-32
220
-2.8685851079169727e-31
230
1
0
CIRCLE
5
140
100
AcDbEntity
8
0
100
AcDbCircle
10
-225.00000000090006
20
-2.233946361229755e-10
30
0
40
2.7499999999999947
210
-7.1714499816514025e-32
220
-2.8685851079026234e-31
230
1
0
CIRCLE
5
141
100
AcDbEntity
8
0
100
AcDbCircle
10
-130.00000000134887
20
450.00000278365701
30
0
40
2.7499999999999769
210
-7.1714499815191199e-32
220
-2.8685851079322189e-31
230
1
0
CIRCLE
5
142
100
AcDbEntity
8
0
100
AcDbCircle
10
-285.00000139326352
20
158.33333472517668
30
0
40
2.7500000000000036
210
-7.1714499817141806e-32
220
-2.8685851078873773e-31
230
1
0
CIRCLE
5
143
100
AcDbEntity
8
0
100
AcDbCircle
10
1.0658141036401503e-13
20
7.1054273576010019e-14
30
0
40
2.7499999999999858
210
-7.1714499815841401e-32
220
-2.8685851079169727e-31
230
1
0
CIRCLE
5
144
100
AcDbEntity
8
0
100
AcDbCircle
10
-225.00000000134855
20
450.00000278356174
30
0
40
2.7499999999999947
210
-7.1714499816514025e-32
220
-2.8685851079026234e-31
230
1
0
CIRCLE
5
145
100
AcDbEntity
8
0
100
AcDbCircle
10
155.00000139204917
20
158.33333472561375
30
0
40
2.7499999999999858
210
-7.1714499815841401e-32
220
-2.8685851079169727e-31
230
1
0
ENDSEC
0
SECTION
2
OBJECTS
0
DICTIONARY
5
C
100
AcDbDictionary
3
ACAD_GROUP
350
D
3
ACAD_MLINESTYLE
350
17
0
DICTIONARY
5
D
100
AcDbDictionary
0
DICTIONARY
5
1A
330
C
100
AcDbDictionary
0
DICTIONARY
5
17
100
AcDbDictionary
0
ENDSEC
0
EOF
