0
SECTION
2
HEADER
9
$INSUNITS
70
4
9
$ACADVER
1
AC1014
9
$HANDSEED
5
FFFF
0
ENDSEC
0
SECTION
2
TABLES
0
TABLE
2
VPORT
5
8
100
AcDbSymbolTable
0
ENDTAB
0
TABLE
2
LTYPE
5
5
100
AcDbSymbolTable
0
LTYPE
5
14
100
AcDbSymbolTableRecord
100
AcDbLinetypeTableRecord
2
BYBLOCK
70
0
0
LTYPE
5
15
100
AcDbSymbolTableRecord
100
AcDbLinetypeTableRecord
2
BYLAYER
70
0
0
ENDTAB
0
TABLE
2
LAYER
5
2
100
AcDbSymbolTable
70
2
0
LAYER
5
50
100
AcDbSymbolTableRecord
100
AcDbLayerTableRecord
2
0
70
0
6
CONTINUOUS
0
ENDTAB
0
TABLE
2
STYLE
5
3
100
AcDbSymbolTable
70
1
0
STYLE
5
11
100
AcDbSymbolTableRecord
100
AcDbTextStyleTableRecord
2
STANDARD
70
0
0
ENDTAB
0
TABLE
2
VIEW
5
6
100
AcDbSymbolTable
70
0
0
ENDTAB
0
TABLE
2
UCS
5
7
100
AcDbSymbolTable
70
0
0
ENDTAB
0
TABLE
2
APPID
5
9
100
AcDbSymbolTable
70
2
0
APPID
5
12
100
AcDbSymbolTableRecord
100
AcDbRegAppTableRecord
2
ACAD
70
0
0
ENDTAB
0
TABLE
2
DIMSTYLE
5
A
100
AcDbSymbolTable
70
1
0
ENDTAB
0
TABLE
2
BLOCK_RECORD
5
1
100
AcDbSymbolTable
70
1
0
BLOCK_RECORD
5
1F
100
AcDbSymbolTableRecord
100
AcDbBlockTableRecord
2
*MODEL_SPACE
0
BLOCK_RECORD
5
1B
100
AcDbSymbolTableRecord
100
AcDbBlockTableRecord
2
*PAPER_SPACE
0
ENDTAB
0
ENDSEC
0
SECTION
2
BLOCKS
0
BLOCK
5
20
100
AcDbEntity
100
AcDbBlockBegin
2
*MODEL_SPACE
0
ENDBLK
5
21
100
AcDbEntity
100
AcDbBlockEnd
0
BLOCK
5
1C
100
AcDbEntity
100
AcDbBlockBegin
2
*PAPER_SPACE
0
ENDBLK
5
1D
100
AcDbEntity
100
AcDbBlockEnd
0
ENDSEC
0
SECTION
2
ENTITIES
0
LWPOLYLINE
5
100
100
AcDbEntity
8
0
100
AcDbPolyline
90
8
70
1
43
0.0
10
-138.69999999955471
20
1.8914447230677922e-08
42
-0.41421356237309648
10
-139.69999999955371
20
1.0000000189154434
10
-139.69999999888645
20
680.00000001891351
42
-0.41421356237304302
10
-138.6999999988854
20
681.00000001891249
10
268.7000000011102
20
681.00000001851254
42
-0.4142135623731783
10
269.70000000110917
20
680.00000001851163
10
269.70000000044183
20
1.0000000185137183
42
-0.41421356237308499
10
268.70000000044087
20
1.8514641605288469e-08
0
LWPOLYLINE
5
101
100
AcDbEntity
8
0
100
AcDbPolyline
90
2
70
1
43
0.0
10
118.7441023067116
20
60.226141753353552
10
122.2082039218493
20
60.226141753350149
42
3.4641016151377895
0
CIRCLE
5
102
100
AcDbEntity
8
0
100
AcDbCircle
10
65.0000000011363
20
258.00000001864828
30
0
40
2.7499999999999867
210
-4.0919030548331059e-29
220
-1.0097419586824921e-28
230
1
0
CIRCLE
5
103
100
AcDbEntity
8
0
100
AcDbCircle
10
65.000000001101796
20
223.00000001864822
30
0
40
2.7500000000000044
210
1.6102936118797245e-28
220
-1.0097419586844812e-28
230
1
0
CIRCLE
5
104
100
AcDbEntity
8
0
100
AcDbCircle
10
22.02129844400428
20
584.37396803572267
30
0
40
1.7499999999999727
210
-1.0401990967633593e-29
220
1.0096924272658232e-28
230
1
0
CIRCLE
5
105
100
AcDbEntity
8
0
100
AcDbCircle
10
108.0000000159865
20
635.00955862289629
30
0
40
1.7500000000000082
210
-1.0403102002718097e-29
220
-4.9651726561757261e-33
230
1
0
CIRCLE
5
106
100
AcDbEntity
8
0
100
AcDbCircle
10
21.997150776997216
20
634.96851134725819
30
0
40
1.7500000000000082
210
-1.0403102002718097e-29
220
-4.9651726561757261e-33
230
1
0
CIRCLE
5
107
100
AcDbEntity
8
0
100
AcDbCircle
10
108.00000001593642
20
584.41500378620833
30
-2.2204460492503131e-15
40
1.7500000000000082
210
-1.0403102002718097e-29
220
-4.9651726561757261e-33
230
1
0
LWPOLYLINE
5
108
100
AcDbEntity
8
0
100
AcDbPolyline
90
8
70
1
43
0.0
10
27.999999986141162
20
592.9999999726607
10
102.00000001594297
20
592.99999997258806
42
0.4142135623730846
10
103.00000001594393
20
593.99999997258703
10
103.00000001597758
20
628.00000000238936
42
0.4142135623730846
10
102.0000000159786
20
629.00000000239038
10
27.999999986176775
20
629.0000000024628
42
0.41421356237307033
10
26.999999986175773
20
628.00000000246382
10
26.999999986142157
20
593.99999997266161
42
0.41421356237309764
0
CIRCLE
5
109
100
AcDbEntity
8
0
100
AcDbCircle
10
128.54415757726724
20
635.0193638991816
30
0
40
2.2249999999999934
210
-1.0452405803678847e-29
220
-4.988704280138645e-33
230
1
0
CIRCLE
5
110
100
AcDbEntity
8
0
100
AcDbCircle
10
173.77686219944241
20
584.44639764137128
30
0
40
2.2250000000000028
210
-1.0401990967633595e-29
220
1.0096924272658233e-28
230
1
0
LWPOLYLINE
5
111
100
AcDbEntity
8
0
100
AcDbPolyline
90
12
70
1
43
0.0
10
162.18325989542313
20
76.497462096988485
10
158.35483277067328
20
72.669034972245967
42
0.19891236737966067
10
157.47615311423081
20
70.547714628687373
10
157.47615311421595
20
55.404568878179603
42
0.19891236737968238
10
158.35483277065418
20
53.283248534618927
10
162.18325989539653
20
49.454821409869076
42
0.1989123673796786
10
164.30458023895537
20
48.576141753426604
10
203.47615311420867
20
48.576141753388285
42
0.41421356237310281
10
206.4761531142116
20
51.576141753385365
10
206.47615311423397
20
74.376141753385497
42
0.41421356237310897
10
203.47615311423692
20
77.376141753388495
10
164.30458023898368
20
77.376141753426765
42
0.19891236737966828
0
CIRCLE
5
112
100
AcDbEntity
8
0
100
AcDbCircle
10
153.97615311422317
20
62.976141753437744
30
0
40
2.2499999999999973
210
1.3262835850673322e-28
220
1.0103747792443645e-28
230
1
0
CIRCLE
5
113
100
AcDbEntity
8
0
100
AcDbCircle
10
209.9761531142228
20
62.976141753382961
30
-2.2204460492503131e-15
40
2.2499999999999973
210
1.3262835850673322e-28
220
1.0103747792443645e-28
230
1
0
CIRCLE
5
114
100
AcDbEntity
8
0
100
AcDbCircle
10
4.5702108764088636e-10
20
13.000000018778195
30
0
40
2.7499999999999867
210
4.0472050936211257e-29
220
-3.9783982314194849e-41
230
1
0
CIRCLE
5
115
100
AcDbEntity
8
0
100
AcDbCircle
10
-129.99999999911441
20
448.00000001890373
30
2.2204460492503131e-15
40
2.7499999999999867
210
4.0472050936211257e-29
220
-3.9783982314194849e-41
230
1
0
CIRCLE
5
116
100
AcDbEntity
8
0
100
AcDbCircle
10
130.00000000045449
20
13.000000018650653
30
0
40
2.7500000000000218
210
4.0472050936310323e-29
220
1.0097419586824975e-28
230
1
0
CIRCLE
5
117
100
AcDbEntity
8
0
100
AcDbCircle
10
8.8462570602097566e-10
20
448.00000001877618
30
0
40
2.7499999999999867
210
4.0472050936211257e-29
220
-3.9783982314194849e-41
230
1
0
CIRCLE
5
118
100
AcDbEntity
8
0
100
AcDbCircle
10
260.00000000088102
20
448.00000001852112
30
2.2204460492503131e-15
40
2.7500000000000044
210
4.0472050936211257e-29
220
-3.9783982314194859e-41
230
1
0
CIRCLE
5
119
100
AcDbEntity
8
0
100
AcDbCircle
10
1.1008793876493905e-09
20
668.00000001877629
30
0
40
2.7499999999999867
210
4.0472050936211257e-29
220
-3.9783982314194849e-41
230
1
0
CIRCLE
5
120
100
AcDbEntity
8
0
100
AcDbCircle
10
260.00000000045361
20
13.00000001852311
30
0
40
2.7499999999999867
210
4.0472050936211257e-29
220
-3.9783982314194849e-41
230
1
0
CIRCLE
5
121
100
AcDbEntity
8
0
100
AcDbCircle
10
130.00000000109767
20
668.00000001864873
30
0
40
2.7500000000000044
210
4.0472050936211257e-29
220
-3.9783982314194859e-41
230
1
0
CIRCLE
5
122
100
AcDbEntity
8
0
100
AcDbCircle
10
-129.99999999954201
20
13.000000018905737
30
2.2204460492503131e-15
40
2.7500000000000577
210
4.0472050936211257e-29
220
-3.9783982314194859e-41
230
1
0
CIRCLE
5
123
100
AcDbEntity
8
0
100
AcDbCircle
10
260.00000000109731
20
668.00000001852129
30
0
40
2.7500000000000044
210
4.0472050936211257e-29
220
-3.9783982314194859e-41
230
1
0
CIRCLE
5
124
100
AcDbEntity
8
0
100
AcDbCircle
10
-129.9999999988982
20
668.00000001890385
30
2.2204460492503131e-15
40
2.7499999999999867
210
4.0472050936211257e-29
220
-3.9783982314194849e-41
230
1
0
CIRCLE
5
125
100
AcDbEntity
8
0
100
AcDbCircle
10
130.00000000088139
20
448.00000001864868
30
0
40
2.7500000000000044
210
4.0472050936211257e-29
220
-3.9783982314194859e-41
230
1
0
ENDSEC
0
SECTION
2
OBJECTS
0
DICTIONARY
5
C
100
AcDbDictionary
3
ACAD_GROUP
350
D
3
ACAD_MLINESTYLE
350
17
0
DICTIONARY
5
D
100
AcDbDictionary
0
DICTIONARY
5
1A
330
C
100
AcDbDictionary
0
DICTIONARY
5
17
100
AcDbDictionary
0
ENDSEC
0
EOF
