0
SECTION
2
HEADER
9
$INSUNITS
70
4
9
$ACADVER
1
AC1014
9
$HANDSEED
5
FFFF
0
ENDSEC
0
SECTION
2
TABLES
0
TABLE
2
VPORT
5
8
100
AcDbSymbolTable
0
ENDTAB
0
TABLE
2
LTYPE
5
5
100
AcDbSymbolTable
0
LTYPE
5
14
100
AcDbSymbolTableRecord
100
AcDbLinetypeTableRecord
2
BYBLOCK
70
0
0
LTYPE
5
15
100
AcDbSymbolTableRecord
100
AcDbLinetypeTableRecord
2
BYLAYER
70
0
0
ENDTAB
0
TABLE
2
LAYER
5
2
100
AcDbSymbolTable
70
2
0
LAYER
5
50
100
AcDbSymbolTableRecord
100
AcDbLayerTableRecord
2
0
70
0
6
CONTINUOUS
0
ENDTAB
0
TABLE
2
STYLE
5
3
100
AcDbSymbolTable
70
1
0
STYLE
5
11
100
AcDbSymbolTableRecord
100
AcDbTextStyleTableRecord
2
STANDARD
70
0
0
ENDTAB
0
TABLE
2
VIEW
5
6
100
AcDbSymbolTable
70
0
0
ENDTAB
0
TABLE
2
UCS
5
7
100
AcDbSymbolTable
70
0
0
ENDTAB
0
TABLE
2
APPID
5
9
100
AcDbSymbolTable
70
2
0
APPID
5
12
100
AcDbSymbolTableRecord
100
AcDbRegAppTableRecord
2
ACAD
70
0
0
ENDTAB
0
TABLE
2
DIMSTYLE
5
A
100
AcDbSymbolTable
70
1
0
ENDTAB
0
TABLE
2
BLOCK_RECORD
5
1
100
AcDbSymbolTable
70
1
0
BLOCK_RECORD
5
1F
100
AcDbSymbolTableRecord
100
AcDbBlockTableRecord
2
*MODEL_SPACE
0
BLOCK_RECORD
5
1B
100
AcDbSymbolTableRecord
100
AcDbBlockTableRecord
2
*PAPER_SPACE
0
ENDTAB
0
ENDSEC
0
SECTION
2
BLOCKS
0
BLOCK
5
20
100
AcDbEntity
100
AcDbBlockBegin
2
*MODEL_SPACE
0
ENDBLK
5
21
100
AcDbEntity
100
AcDbBlockEnd
0
BLOCK
5
1C
100
AcDbEntity
100
AcDbBlockBegin
2
*PAPER_SPACE
0
ENDBLK
5
1D
100
AcDbEntity
100
AcDbBlockEnd
0
ENDSEC
0
SECTION
2
ENTITIES
0
CIRCLE
5
100
100
AcDbEntity
8
0
100
AcDbCircle
10
305.00000000000006
20
-368
30
0
40
1.4999999999999858
210
0
220
-0
230
1
0
CIRCLE
5
101
100
AcDbEntity
8
0
100
AcDbCircle
10
280.00000000000006
20
-368
30
0
40
1.4999999999999858
210
0
220
-0
230
1
0
LWPOLYLINE
5
102
100
AcDbEntity
8
0
100
AcDbPolyline
90
16
70
1
43
0.0
10
300.00000000000006
20
-360.99999999999994
42
-0.41421356237310197
10
303.00000000000006
20
-358
10
345.5
20
-358
42
0.41421356237309503
10
347
20
-356.5
10
347
20
-18.500000000000014
42
0.41421356237309503
10
345.50000000000006
20
-16.999999999999993
10
44.500000000000028
20
-16.999999999999986
42
0.41421356237310458
10
43
20
-18.500000000000014
10
42.999999999999986
20
-356.5
42
0.41421356237309503
10
44.499999999999993
20
-358
10
282.00000000000006
20
-358
42
-0.41421356237310197
10
285.00000000000006
20
-360.99999999999994
10
285.00000000000006
20
-375
42
0.41421356237309503
10
288.00000000000006
20
-378
10
297.00000000000011
20
-378
42
0.41421356237309503
10
300.00000000000006
20
-375
0
CIRCLE
5
103
100
AcDbEntity
8
0
100
AcDbCircle
10
222.71000000000004
20
-368
30
0
40
2.5
210
0
220
-0
230
1
0
CIRCLE
5
104
100
AcDbEntity
8
0
100
AcDbCircle
10
202.71000000000004
20
-368
30
0
40
2.5
210
0
220
-0
230
1
0
CIRCLE
5
105
100
AcDbEntity
8
0
100
AcDbCircle
10
357
20
-100.5
30
0
40
2.5
210
0
220
-0
230
1
0
CIRCLE
5
106
100
AcDbEntity
8
0
100
AcDbCircle
10
33.000000000000007
20
-100.5
30
0
40
2.4999999999999956
210
0
220
-0
230
1
0
CIRCLE
5
107
100
AcDbEntity
8
0
100
AcDbCircle
10
368.50000000000011
20
-379
30
0
40
1.4999999999999858
210
0
220
-0
230
1
0
CIRCLE
5
108
100
AcDbEntity
8
0
100
AcDbCircle
10
21.499999999999915
20
-379
30
0
40
1.4999999999999991
210
0
220
-0
230
1
0
CIRCLE
5
109
100
AcDbEntity
8
0
100
AcDbCircle
10
357.50000000000006
20
-379
30
0
40
1.5000000000000568
210
0
220
-0
230
1
0
CIRCLE
5
110
100
AcDbEntity
8
0
100
AcDbCircle
10
32.499999999999929
20
-379
30
0
40
1.5000000000000213
210
0
220
-0
230
1
0
CIRCLE
5
111
100
AcDbEntity
8
0
100
AcDbCircle
10
379.99999999999858
20
-380
30
0
40
2.5000000000000711
210
0
220
-0
230
1
0
CIRCLE
5
112
100
AcDbEntity
8
0
100
AcDbCircle
10
10
20
-380
30
0
40
2.4999999999999769
210
0
220
-0
230
1
0
CIRCLE
5
113
100
AcDbEntity
8
0
100
AcDbCircle
10
379.99999999999909
20
-256.66666666666663
30
0
40
2.5
210
0
220
-0
230
1
0
CIRCLE
5
114
100
AcDbEntity
8
0
100
AcDbCircle
10
10
20
-256.66666666666663
30
0
40
2.4999999999999991
210
0
220
-0
230
1
0
CIRCLE
5
115
100
AcDbEntity
8
0
100
AcDbCircle
10
379.99999999999949
20
-133.33333333333334
30
0
40
2.5
210
0
220
-0
230
1
0
CIRCLE
5
116
100
AcDbEntity
8
0
100
AcDbCircle
10
10
20
-133.33333333333334
30
0
40
2.5
210
0
220
-0
230
1
0
LWPOLYLINE
5
117
100
AcDbEntity
8
0
100
AcDbPolyline
90
16
70
1
43
0.0
10
390.00000000000006
20
-390
10
4.9303806576313238e-31
20
-390
10
0
20
0
10
41
20
1.1102230246251565e-14
42
-0.41421356237309404
10
43.000000000000007
20
-1.9999999999999929
10
43
20
-4
42
0.99999999999999989
10
47.399999999999991
20
-4
10
47.399999999999991
20
-1.9999999999999931
42
-0.41421356237309132
10
49.399999999999977
20
0
10
340.60000000000002
20
-3.858025010572419e-14
42
-0.41421356237310497
10
342.60000000000002
20
-1.9999999999999929
10
342.60000000000002
20
-3.9999999999999996
42
0.99999999999999989
10
347
20
-4.0000000000000009
10
346.99999999999994
20
-1.9999999999999933
42
-0.41421356237310497
10
349.00000000000006
20
0
10
390
20
0
0
CIRCLE
5
118
100
AcDbEntity
8
0
100
AcDbCircle
10
364.49999999999943
20
-157.00000000000057
30
0
40
1.4999999999999858
210
0
220
-0
230
1
0
CIRCLE
5
119
100
AcDbEntity
8
0
100
AcDbCircle
10
364.49999999999886
20
-317.00000000000057
30
0
40
1.4999999999999858
210
0
220
-0
230
1
0
CIRCLE
5
120
100
AcDbEntity
8
0
100
AcDbCircle
10
25.500000000000004
20
-277
30
0
40
1.4999999999999991
210
0
220
-0
230
1
0
CIRCLE
5
121
100
AcDbEntity
8
0
100
AcDbCircle
10
25.500000000000004
20
-117
30
0
40
1.4999999999999991
210
0
220
-0
230
1
0
CIRCLE
5
122
100
AcDbEntity
8
0
100
AcDbCircle
10
25.500000000000004
20
-157
30
0
40
1.4999999999999991
210
0
220
-0
230
1
0
CIRCLE
5
123
100
AcDbEntity
8
0
100
AcDbCircle
10
25.500000000000004
20
-317
30
0
40
1.4999999999999991
210
0
220
-0
230
1
0
CIRCLE
5
124
100
AcDbEntity
8
0
100
AcDbCircle
10
364.49999999999898
20
-277.00000000000057
30
0
40
1.4999999999999858
210
0
220
-0
230
1
0
CIRCLE
5
125
100
AcDbEntity
8
0
100
AcDbCircle
10
364.49999999999955
20
-117.00000000000058
30
0
40
1.4999999999999858
210
0
220
-0
230
1
0
CIRCLE
5
126
100
AcDbEntity
8
0
100
AcDbCircle
10
364.49999999999926
20
-197.0000000000006
30
0
40
1.4999999999999858
210
0
220
-0
230
1
0
CIRCLE
5
127
100
AcDbEntity
8
0
100
AcDbCircle
10
364.49999999999869
20
-357.00000000000057
30
0
40
1.4999999999999858
210
0
220
-0
230
1
0
CIRCLE
5
128
100
AcDbEntity
8
0
100
AcDbCircle
10
25.500000000000004
20
-237
30
0
40
1.4999999999999991
210
0
220
-0
230
1
0
CIRCLE
5
129
100
AcDbEntity
8
0
100
AcDbCircle
10
25.500000000000004
20
-77
30
0
40
1.4999999999999991
210
0
220
-0
230
1
0
CIRCLE
5
130
100
AcDbEntity
8
0
100
AcDbCircle
10
25.500000000000004
20
-197
30
0
40
1.4999999999999991
210
0
220
-0
230
1
0
CIRCLE
5
131
100
AcDbEntity
8
0
100
AcDbCircle
10
25.500000000000004
20
-357
30
0
40
1.4999999999999991
210
0
220
-0
230
1
0
CIRCLE
5
132
100
AcDbEntity
8
0
100
AcDbCircle
10
364.4999999999992
20
-237.0000000000006
30
0
40
1.4999999999999858
210
0
220
-0
230
1
0
CIRCLE
5
133
100
AcDbEntity
8
0
100
AcDbCircle
10
364.49999999999977
20
-77.000000000000611
30
0
40
1.4999999999999858
210
0
220
-0
230
1
0
LWPOLYLINE
5
134
100
AcDbEntity
8
0
100
AcDbPolyline
90
4
70
1
43
0.0
10
351.40000000000009
20
-6.0000000000005818
10
351.40000000000009
20
-11.000000000000583
42
0.99999999999999989
10
354.60000000000002
20
-11.000000000000583
10
354.60000000000002
20
-6.0000000000005818
42
0.99999999999999989
0
LWPOLYLINE
5
135
100
AcDbEntity
8
0
100
AcDbPolyline
90
4
70
1
43
0.0
10
35.399999999999991
20
-6.0000000000000009
10
35.399999999999991
20
-11
42
0.99999999999999989
10
38.599999999999994
20
-11
10
38.599999999999994
20
-6.0000000000000009
42
0.99999999999999989
0
LWPOLYLINE
5
136
100
AcDbEntity
8
0
100
AcDbPolyline
90
4
70
1
43
0.0
10
351.39999999999986
20
-37.000000000000007
10
351.39999999999986
20
-42
42
0.99999999999999989
10
354.59999999999985
20
-42
10
354.5999999999998
20
-37.000000000000007
42
0.99999999999999989
0
LWPOLYLINE
5
137
100
AcDbEntity
8
0
100
AcDbPolyline
90
4
70
1
43
0.0
10
35.399999999999999
20
-37
10
35.399999999999999
20
-41.999999999999993
42
0.99999999999999989
10
38.600000000000001
20
-41.999999999999993
10
38.600000000000001
20
-37
42
0.99999999999999989
0
LWPOLYLINE
5
138
100
AcDbEntity
8
0
100
AcDbPolyline
90
4
70
1
43
0.0
10
382.49999999999994
20
-57.500000000000043
10
382.5
20
-50.500000000000036
42
0.99999999999999989
10
377.5
20
-50.499999999999979
10
377.49999999999994
20
-57.499999999999993
42
0.99999999999999989
0
LWPOLYLINE
5
139
100
AcDbEntity
8
0
100
AcDbPolyline
90
4
70
1
43
0.0
10
12.5
20
-57.5
10
12.5
20
-50.5
42
0.99999999999999989
10
7.5
20
-50.5
10
7.5
20
-57.5
42
0.99999999999999989
0
CIRCLE
5
140
100
AcDbEntity
8
0
100
AcDbCircle
10
10
20
-10
30
0
40
2.5
210
0
220
-0
230
1
0
CIRCLE
5
141
100
AcDbEntity
8
0
100
AcDbCircle
10
177.30000000000004
20
-370
30
0
40
2.5
210
0
220
-0
230
1
0
CIRCLE
5
142
100
AcDbEntity
8
0
100
AcDbCircle
10
380
20
-9.9999999999999982
30
0
40
2.5
210
0
220
-0
230
1
0
CIRCLE
5
143
100
AcDbEntity
8
0
100
AcDbCircle
10
360
20
-54.999999999999993
30
0
40
2.5
210
0
220
-0
230
1
0
CIRCLE
5
144
100
AcDbEntity
8
0
100
AcDbCircle
10
30
20
-55
30
0
40
2.4999999999999956
210
0
220
-0
230
1
0
CIRCLE
5
145
100
AcDbEntity
8
0
100
AcDbCircle
10
322
20
-370
30
0
40
2.9999999999999716
210
0
220
-0
230
1
0
CIRCLE
5
146
100
AcDbEntity
8
0
100
AcDbCircle
10
68
20
-370
30
0
40
2.9999999999999893
210
0
220
-0
230
1
0
CIRCLE
5
147
100
AcDbEntity
8
0
100
AcDbCircle
10
357
20
-80.5
30
0
40
2.5
210
0
220
-0
230
1
0
CIRCLE
5
148
100
AcDbEntity
8
0
100
AcDbCircle
10
33.000000000000007
20
-80.5
30
0
40
2.5
210
0
220
-0
230
1
0
LWPOLYLINE
5
149
100
AcDbEntity
8
0
100
AcDbPolyline
90
4
70
1
43
0.0
10
111.00000000000001
20
-366.00000000000011
10
98.999999999999972
20
-366
42
0.99999999999999989
10
99
20
-374
10
111.00000000000001
20
-374.00000000000006
42
0.99999999999999989
0
ENDSEC
0
SECTION
2
OBJECTS
0
DICTIONARY
5
C
100
AcDbDictionary
3
ACAD_GROUP
350
D
3
ACAD_MLINESTYLE
350
17
0
DICTIONARY
5
D
100
AcDbDictionary
0
DICTIONARY
5
1A
330
C
100
AcDbDictionary
0
DICTIONARY
5
17
100
AcDbDictionary
0
ENDSEC
0
EOF
