0
SECTION
2
HEADER
9
$INSUNITS
70
4
9
$ACADVER
1
AC1014
9
$HANDSEED
5
FFFF
0
ENDSEC
0
SECTION
2
TABLES
0
TABLE
2
VPORT
5
8
100
AcDbSymbolTable
0
ENDTAB
0
TABLE
2
LTYPE
5
5
100
AcDbSymbolTable
0
LTYPE
5
14
100
AcDbSymbolTableRecord
100
AcDbLinetypeTableRecord
2
BYBLOCK
70
0
0
LTYPE
5
15
100
AcDbSymbolTableRecord
100
AcDbLinetypeTableRecord
2
BYLAYER
70
0
0
ENDTAB
0
TABLE
2
LAYER
5
2
100
AcDbSymbolTable
70
2
0
LAYER
5
50
100
AcDbSymbolTableRecord
100
AcDbLayerTableRecord
2
0
70
0
6
CONTINUOUS
0
ENDTAB
0
TABLE
2
STYLE
5
3
100
AcDbSymbolTable
70
1
0
STYLE
5
11
100
AcDbSymbolTableRecord
100
AcDbTextStyleTableRecord
2
STANDARD
70
0
0
ENDTAB
0
TABLE
2
VIEW
5
6
100
AcDbSymbolTable
70
0
0
ENDTAB
0
TABLE
2
UCS
5
7
100
AcDbSymbolTable
70
0
0
ENDTAB
0
TABLE
2
APPID
5
9
100
AcDbSymbolTable
70
2
0
APPID
5
12
100
AcDbSymbolTableRecord
100
AcDbRegAppTableRecord
2
ACAD
70
0
0
ENDTAB
0
TABLE
2
DIMSTYLE
5
A
100
AcDbSymbolTable
70
1
0
ENDTAB
0
TABLE
2
BLOCK_RECORD
5
1
100
AcDbSymbolTable
70
1
0
BLOCK_RECORD
5
1F
100
AcDbSymbolTableRecord
100
AcDbBlockTableRecord
2
*MODEL_SPACE
0
BLOCK_RECORD
5
1B
100
AcDbSymbolTableRecord
100
AcDbBlockTableRecord
2
*PAPER_SPACE
0
ENDTAB
0
ENDSEC
0
SECTION
2
BLOCKS
0
BLOCK
5
20
100
AcDbEntity
100
AcDbBlockBegin
2
*MODEL_SPACE
0
ENDBLK
5
21
100
AcDbEntity
100
AcDbBlockEnd
0
BLOCK
5
1C
100
AcDbEntity
100
AcDbBlockBegin
2
*PAPER_SPACE
0
ENDBLK
5
1D
100
AcDbEntity
100
AcDbBlockEnd
0
ENDSEC
0
SECTION
2
ENTITIES
0
CIRCLE
5
100
100
AcDbEntity
8
0
100
AcDbCircle
10
-194.99999999999997
20
-380
30
0
40
2.5
210
0
220
0
230
1
0
CIRCLE
5
101
100
AcDbEntity
8
0
100
AcDbCircle
10
-194.99999999999997
20
-9.9999999999999289
30
0
40
2.5
210
0
220
0
230
1
0
CIRCLE
5
102
100
AcDbEntity
8
0
100
AcDbCircle
10
-10.000000000000004
20
-175
30
0
40
2.5000000000000036
210
0
220
0
230
1
0
CIRCLE
5
103
100
AcDbEntity
8
0
100
AcDbCircle
10
-380
20
-175
30
0
40
2.5
210
0
220
0
230
1
0
LWPOLYLINE
5
104
100
AcDbEntity
8
0
100
AcDbPolyline
90
56
70
1
43
0.0
10
-389.99999999999994
20
-102.65000000000001
42
-0.41421356237309631
10
-385.99999999999994
20
-98.650000000000006
10
-360
20
-98.650000000000006
42
0.41421356237309503
10
-347.5
20
-86.150000000000006
10
-347.5
20
-55
42
0.4142135623730967
10
-360
20
-42.5
10
-385.99999999999994
20
-42.500000000000107
42
-0.41421356237309764
10
-390
20
-38.500000000000007
10
-389.99999999999994
20
-21.124630174277605
42
-0.36040590139501427
10
-386.74418604651157
20
-17.194466420923639
42
0.30838396876309182
10
-372.80553357907644
20
-3.2558139534883668
42
-0.36040590139502648
10
-368.87536982572226
20
0
10
-21.124630174277605
20
-3.3306690738754696e-15
42
-0.36040590139501738
10
-17.194466420923632
20
-3.2558139534883788
42
0.30838396876309254
10
-3.2558139534883739
20
-17.194466420923632
42
-0.36040590139501932
10
0
20
-21.124630174277641
10
-1.8318679906315083e-14
20
-38.500000000000014
42
-0.41421356237309503
10
-4.0000000000000036
20
-42.5
10
-29.999999999999929
20
-42.5
42
0.41421356237309503
10
-42.499999999999929
20
-55
10
-42.499999999999929
20
-86.150000000000006
42
0.41421356237309503
10
-29.999999999999929
20
-98.65000000000002
10
-4.0000000000000036
20
-98.65000000000002
42
-0.41421356237309309
10
0
20
-102.65000000000001
10
-1.1102230246251565e-14
20
-247.34999999999999
42
-0.41421356237309553
10
-4.0000000000000036
20
-251.34999999999997
10
-29.999999999999897
20
-251.34999999999997
42
0.41421356237309515
10
-42.499999999999893
20
-263.84999999999997
10
-42.499999999999893
20
-295
42
0.41421356237309348
10
-29.999999999999929
20
-307.49999999999994
10
-4.0000000000000044
20
-307.5
42
-0.4142135623730957
10
0
20
-311.5
10
-1.9428902930940239e-14
20
-368.87536982572243
42
-0.36040590139500894
10
-3.2558139534883743
20
-372.80553357907638
42
0.30838396876309071
10
-17.194466420923657
20
-386.74418604651169
42
-0.36040590139501261
10
-21.12463017427757
20
-390
10
-275.5
20
-390
42
-0.41421356237308982
10
-277.5
20
-388
10
-277.50000000000006
20
-372
42
0.41421356237309503
10
-279.5
20
-370
10
-305.5
20
-370
42
0.41421356237309503
10
-307.5
20
-372
10
-307.5
20
-388
42
-0.41421356237308982
10
-309.5
20
-390
10
-368.87536982572243
20
-389.99999999999994
42
-0.36040590139500128
10
-372.80553357907638
20
-386.74418604651169
42
0.30838396876309587
10
-386.74418604651169
20
-372.80553357907644
42
-0.36040590139501127
10
-390
20
-368.87536982572243
10
-389.99999999999989
20
-311.5
42
-0.41421356237309764
10
-385.99999999999994
20
-307.5
10
-360
20
-307.49999999999994
42
0.41421356237309087
10
-347.5
20
-295
10
-347.5
20
-263.84999999999997
42
0.41421356237309503
10
-360
20
-251.34999999999997
10
-386.00000000000011
20
-251.34999999999994
42
-0.41421356237309764
10
-390
20
-247.34999999999999
0
ENDSEC
0
SECTION
2
OBJECTS
0
DICTIONARY
5
C
100
AcDbDictionary
3
ACAD_GROUP
350
D
3
ACAD_MLINESTYLE
350
17
0
DICTIONARY
5
D
100
AcDbDictionary
0
DICTIONARY
5
1A
330
C
100
AcDbDictionary
0
DICTIONARY
5
17
100
AcDbDictionary
0
ENDSEC
0
EOF
