0
SECTION
2
HEADER
9
$INSUNITS
70
4
9
$ACADVER
1
AC1014
9
$HANDSEED
5
FFFF
0
ENDSEC
0
SECTION
2
TABLES
0
TABLE
2
VPORT
5
8
100
AcDbSymbolTable
0
ENDTAB
0
TABLE
2
LTYPE
5
5
100
AcDbSymbolTable
0
LTYPE
5
14
100
AcDbSymbolTableRecord
100
AcDbLinetypeTableRecord
2
BYBLOCK
70
0
0
LTYPE
5
15
100
AcDbSymbolTableRecord
100
AcDbLinetypeTableRecord
2
BYLAYER
70
0
0
ENDTAB
0
TABLE
2
LAYER
5
2
100
AcDbSymbolTable
70
2
0
LAYER
5
50
100
AcDbSymbolTableRecord
100
AcDbLayerTableRecord
2
0
70
0
6
CONTINUOUS
0
ENDTAB
0
TABLE
2
STYLE
5
3
100
AcDbSymbolTable
70
1
0
STYLE
5
11
100
AcDbSymbolTableRecord
100
AcDbTextStyleTableRecord
2
STANDARD
70
0
0
ENDTAB
0
TABLE
2
VIEW
5
6
100
AcDbSymbolTable
70
0
0
ENDTAB
0
TABLE
2
UCS
5
7
100
AcDbSymbolTable
70
0
0
ENDTAB
0
TABLE
2
APPID
5
9
100
AcDbSymbolTable
70
2
0
APPID
5
12
100
AcDbSymbolTableRecord
100
AcDbRegAppTableRecord
2
ACAD
70
0
0
ENDTAB
0
TABLE
2
DIMSTYLE
5
A
100
AcDbSymbolTable
70
1
0
ENDTAB
0
TABLE
2
BLOCK_RECORD
5
1
100
AcDbSymbolTable
70
1
0
BLOCK_RECORD
5
1F
100
AcDbSymbolTableRecord
100
AcDbBlockTableRecord
2
*MODEL_SPACE
0
BLOCK_RECORD
5
1B
100
AcDbSymbolTableRecord
100
AcDbBlockTableRecord
2
*PAPER_SPACE
0
ENDTAB
0
ENDSEC
0
SECTION
2
BLOCKS
0
BLOCK
5
20
100
AcDbEntity
100
AcDbBlockBegin
2
*MODEL_SPACE
0
ENDBLK
5
21
100
AcDbEntity
100
AcDbBlockEnd
0
BLOCK
5
1C
100
AcDbEntity
100
AcDbBlockBegin
2
*PAPER_SPACE
0
ENDBLK
5
1D
100
AcDbEntity
100
AcDbBlockEnd
0
ENDSEC
0
SECTION
2
ENTITIES
0
CIRCLE
5
100
100
AcDbEntity
8
0
100
AcDbCircle
10
-10
20
-380
30
0
40
1.4999999999999969
210
0
220
0
230
1
0
CIRCLE
5
101
100
AcDbEntity
8
0
100
AcDbCircle
10
-379.99999999999858
20
-380
30
0
40
1.4999999999999858
210
0
220
0
230
1
0
LWPOLYLINE
5
102
100
AcDbEntity
8
0
100
AcDbPolyline
90
12
70
1
43
0.0
10
-72
20
-370
42
-0.41421356237309503
10
-70
20
-372
10
-70.000000000000014
20
-378
42
0.41421356237309503
10
-68
20
-380
10
-62
20
-380
42
0.41421356237309503
10
-60
20
-378
10
-60.000000000000028
20
-372
42
-0.41421356237309503
10
-58
20
-370
10
-43
20
-370
10
-43.000000000000007
20
-20
10
-346.99999999999994
20
-20
10
-347
20
-370
0
LWPOLYLINE
5
103
100
AcDbEntity
8
0
100
AcDbPolyline
90
16
70
1
43
0.0
10
-43
20
-1.9999999999999938
42
-0.41421356237309398
10
-41
20
0
10
0
20
0
10
0
20
-390
10
-390.00000000000006
20
-390
10
-390
20
0
10
-349.00000000000006
20
-3.858025010572419e-14
42
-0.41421356237310497
10
-347
20
-1.9999999999999929
10
-347
20
-4.0000000000000009
42
0.99999999999999989
10
-342.60000000000002
20
-4
10
-342.60000000000014
20
-1.9999999999999933
42
-0.41421356237310497
10
-340.60000000000002
20
0
10
-49.399999999999991
20
9.4368957093138306e-15
42
-0.41421356237309387
10
-47.399999999999984
20
-1.9999999999999929
10
-47.399999999999991
20
-4
42
0.99999999999999989
10
-43
20
-4
0
LWPOLYLINE
5
104
100
AcDbEntity
8
0
100
AcDbPolyline
90
4
70
1
43
0.0
10
-12.5
20
-50.5
10
-12.5
20
-57.5
42
0.99999999999999989
10
-7.5
20
-57.5
10
-7.5
20
-50.5
42
0.99999999999999989
0
LWPOLYLINE
5
105
100
AcDbEntity
8
0
100
AcDbPolyline
90
4
70
1
43
0.0
10
-382.5
20
-50.500000000000036
10
-382.49999999999994
20
-57.500000000000043
42
0.99999999999999989
10
-377.49999999999994
20
-57.499999999999993
10
-377.5
20
-50.499999999999979
42
0.99999999999999989
0
CIRCLE
5
106
100
AcDbEntity
8
0
100
AcDbCircle
10
-50
20
-380
30
0
40
2.6499999999999968
210
0
220
0
230
1
0
CIRCLE
5
107
100
AcDbEntity
8
0
100
AcDbCircle
10
-339.99999999999858
20
-380
30
0
40
2.6500000000000057
210
0
220
0
230
1
0
CIRCLE
5
108
100
AcDbEntity
8
0
100
AcDbCircle
10
-364.49999999999977
20
-77.000000000000611
30
0
40
1.4999999999999858
210
0
220
0
230
1
0
CIRCLE
5
109
100
AcDbEntity
8
0
100
AcDbCircle
10
-364.4999999999992
20
-237.0000000000006
30
0
40
1.4999999999999858
210
0
220
0
230
1
0
CIRCLE
5
110
100
AcDbEntity
8
0
100
AcDbCircle
10
-25.500000000000004
20
-357
30
0
40
1.4999999999999991
210
0
220
0
230
1
0
CIRCLE
5
111
100
AcDbEntity
8
0
100
AcDbCircle
10
-25.500000000000004
20
-197
30
0
40
1.4999999999999991
210
0
220
0
230
1
0
LWPOLYLINE
5
112
100
AcDbEntity
8
0
100
AcDbPolyline
90
4
70
1
43
0.0
10
-351.40000000000009
20
-11.000000000000583
10
-351.40000000000009
20
-6.0000000000005818
42
0.99999999999999989
10
-354.60000000000002
20
-6.0000000000005818
10
-354.60000000000002
20
-11.000000000000583
42
0.99999999999999989
0
LWPOLYLINE
5
113
100
AcDbEntity
8
0
100
AcDbPolyline
90
4
70
1
43
0.0
10
-35.399999999999991
20
-11
10
-35.399999999999991
20
-6.0000000000000009
42
0.99999999999999989
10
-38.599999999999994
20
-6.0000000000000009
10
-38.599999999999994
20
-11
42
0.99999999999999989
0
LWPOLYLINE
5
114
100
AcDbEntity
8
0
100
AcDbPolyline
90
4
70
1
43
0.0
10
-35.399999999999999
20
-41.999999999999993
10
-35.399999999999999
20
-37
42
0.99999999999999989
10
-38.600000000000001
20
-37
10
-38.600000000000001
20
-41.999999999999993
42
0.99999999999999989
0
LWPOLYLINE
5
115
100
AcDbEntity
8
0
100
AcDbPolyline
90
4
70
1
43
0.0
10
-351.39999999999986
20
-42
10
-351.39999999999986
20
-37.000000000000007
42
0.99999999999999989
10
-354.5999999999998
20
-37.000000000000007
10
-354.59999999999985
20
-42
42
0.99999999999999989
0
CIRCLE
5
116
100
AcDbEntity
8
0
100
AcDbCircle
10
-25.500000000000004
20
-77
30
0
40
1.4999999999999991
210
0
220
0
230
1
0
CIRCLE
5
117
100
AcDbEntity
8
0
100
AcDbCircle
10
-25.500000000000004
20
-237
30
0
40
1.4999999999999991
210
0
220
0
230
1
0
CIRCLE
5
118
100
AcDbEntity
8
0
100
AcDbCircle
10
-364.49999999999869
20
-357.00000000000057
30
0
40
1.4999999999999858
210
0
220
0
230
1
0
CIRCLE
5
119
100
AcDbEntity
8
0
100
AcDbCircle
10
-364.49999999999926
20
-197.0000000000006
30
0
40
1.4999999999999858
210
0
220
0
230
1
0
CIRCLE
5
120
100
AcDbEntity
8
0
100
AcDbCircle
10
-10
20
-195
30
0
40
2.6499999999999924
210
0
220
0
230
1
0
CIRCLE
5
121
100
AcDbEntity
8
0
100
AcDbCircle
10
-379.99999999999932
20
-195.00000000000063
30
0
40
2.6500000000000057
210
0
220
0
230
1
0
CIRCLE
5
122
100
AcDbEntity
8
0
100
AcDbCircle
10
-364.49999999999955
20
-117.00000000000058
30
0
40
1.4999999999999858
210
0
220
0
230
1
0
CIRCLE
5
123
100
AcDbEntity
8
0
100
AcDbCircle
10
-364.49999999999898
20
-277.00000000000057
30
0
40
1.4999999999999858
210
0
220
0
230
1
0
CIRCLE
5
124
100
AcDbEntity
8
0
100
AcDbCircle
10
-25.500000000000004
20
-317
30
0
40
1.4999999999999991
210
0
220
0
230
1
0
CIRCLE
5
125
100
AcDbEntity
8
0
100
AcDbCircle
10
-25.500000000000004
20
-157
30
0
40
1.4999999999999991
210
0
220
0
230
1
0
CIRCLE
5
126
100
AcDbEntity
8
0
100
AcDbCircle
10
-25.500000000000004
20
-117
30
0
40
1.4999999999999991
210
0
220
0
230
1
0
CIRCLE
5
127
100
AcDbEntity
8
0
100
AcDbCircle
10
-25.500000000000004
20
-277
30
0
40
1.4999999999999991
210
0
220
0
230
1
0
CIRCLE
5
128
100
AcDbEntity
8
0
100
AcDbCircle
10
-364.49999999999886
20
-317.00000000000057
30
0
40
1.4999999999999858
210
0
220
0
230
1
0
CIRCLE
5
129
100
AcDbEntity
8
0
100
AcDbCircle
10
-364.49999999999943
20
-157.00000000000057
30
0
40
1.4999999999999858
210
0
220
0
230
1
0
ENDSEC
0
SECTION
2
OBJECTS
0
DICTIONARY
5
C
100
AcDbDictionary
3
ACAD_GROUP
350
D
3
ACAD_MLINESTYLE
350
17
0
DICTIONARY
5
D
100
AcDbDictionary
0
DICTIONARY
5
1A
330
C
100
AcDbDictionary
0
DICTIONARY
5
17
100
AcDbDictionary
0
ENDSEC
0
EOF
