0
SECTION
2
HEADER
9
$INSUNITS
70
4
9
$ACADVER
1
AC1014
9
$HANDSEED
5
FFFF
0
ENDSEC
0
SECTION
2
TABLES
0
TABLE
2
VPORT
5
8
100
AcDbSymbolTable
0
ENDTAB
0
TABLE
2
LTYPE
5
5
100
AcDbSymbolTable
0
LTYPE
5
14
100
AcDbSymbolTableRecord
100
AcDbLinetypeTableRecord
2
BYBLOCK
70
0
0
LTYPE
5
15
100
AcDbSymbolTableRecord
100
AcDbLinetypeTableRecord
2
BYLAYER
70
0
0
ENDTAB
0
TABLE
2
LAYER
5
2
100
AcDbSymbolTable
70
2
0
LAYER
5
50
100
AcDbSymbolTableRecord
100
AcDbLayerTableRecord
2
0
70
0
6
CONTINUOUS
0
ENDTAB
0
TABLE
2
STYLE
5
3
100
AcDbSymbolTable
70
1
0
STYLE
5
11
100
AcDbSymbolTableRecord
100
AcDbTextStyleTableRecord
2
STANDARD
70
0
0
ENDTAB
0
TABLE
2
VIEW
5
6
100
AcDbSymbolTable
70
0
0
ENDTAB
0
TABLE
2
UCS
5
7
100
AcDbSymbolTable
70
0
0
ENDTAB
0
TABLE
2
APPID
5
9
100
AcDbSymbolTable
70
2
0
APPID
5
12
100
AcDbSymbolTableRecord
100
AcDbRegAppTableRecord
2
ACAD
70
0
0
ENDTAB
0
TABLE
2
DIMSTYLE
5
A
100
AcDbSymbolTable
70
1
0
ENDTAB
0
TABLE
2
BLOCK_RECORD
5
1
100
AcDbSymbolTable
70
1
0
BLOCK_RECORD
5
1F
100
AcDbSymbolTableRecord
100
AcDbBlockTableRecord
2
*MODEL_SPACE
0
BLOCK_RECORD
5
1B
100
AcDbSymbolTableRecord
100
AcDbBlockTableRecord
2
*PAPER_SPACE
0
ENDTAB
0
ENDSEC
0
SECTION
2
BLOCKS
0
BLOCK
5
20
100
AcDbEntity
100
AcDbBlockBegin
2
*MODEL_SPACE
0
ENDBLK
5
21
100
AcDbEntity
100
AcDbBlockEnd
0
BLOCK
5
1C
100
AcDbEntity
100
AcDbBlockBegin
2
*PAPER_SPACE
0
ENDBLK
5
1D
100
AcDbEntity
100
AcDbBlockEnd
0
ENDSEC
0
SECTION
2
ENTITIES
0
LWPOLYLINE
5
100
100
AcDbEntity
8
0
100
AcDbPolyline
90
80
70
1
43
0.0
10
-9.0000000000000053
20
15
42
-0.41421356237309592
10
-6.0000000000000018
20
11.999999999999993
10
-6.0000000000000009
20
8.0000000000000036
42
3
10
6.0000000000000009
20
7.9999999999999982
10
6.0000000000000009
20
11.999999999999993
42
-0.4142135623730957
10
9.0000000000000018
20
15
10
12.999999999999998
20
15.000000000000002
10
15
20
12.999999999999972
10
14.999999999999993
20
-90.5
42
-0.41421356237309537
10
12.999999999999998
20
-92.5
10
9.0000000000000036
20
-92.5
42
0.4142135623730957
10
6.9999999999999929
20
-94.5
10
7
20
-111.49999999999999
42
0.4142135623730957
10
9.0000000000000036
20
-113.49999999999997
10
12.999999999999998
20
-113.5
42
-0.41421356237309925
10
15
20
-115.49999999999997
10
15.000000000000007
20
-125.50000001011625
42
-0.41421355941010207
10
12.000000030348819
20
-128.50000001011625
10
8.9999999696511956
20
-128.50000004046507
42
0.4142135594101084
10
5.9999999999999964
20
-131.50000004046507
10
6.0000000000000036
20
-166.50000007081391
42
0.41421356237309503
10
9.0000000000000036
20
-169.50000007081394
10
12.000000000000002
20
-169.50000007081394
42
-0.4142135623730942
10
15
20
-172.50000007081394
10
15
20
-342.99999999999989
10
13.000000000000007
20
-344.99999999999994
10
8.9999999999999858
20
-345
42
-0.41421356237311985
10
5.9999999999999964
20
-341.99999999999994
10
6.0000000000000124
20
-337.99999999999989
42
2.9999999999999889
10
-6.0000000000000009
20
-337.99999999999989
10
-6.0000000000000444
20
-341.99999999999994
42
-0.41421356237311985
10
-8.9999999999999858
20
-344.99999999999994
10
-26.400000000000006
20
-344.99999999999994
42
-0.41421356237307294
10
-28.399999999999999
20
-342.99999999999989
10
-28.399999999999999
20
-334
42
0.41421356237309503
10
-30.399999999999999
20
-331.99999999999994
10
-40.399999999999999
20
-331.99999999999994
42
0.41421356237309503
10
-42.400000000000013
20
-334
10
-42.400000000000006
20
-342.99999999999989
42
-0.41421356237307161
10
-44.400000000000013
20
-344.99999999999994
10
-195.60000000000002
20
-344.99999999999989
42
-0.41421356237307422
10
-197.60000000000002
20
-342.99999999999989
10
-197.60000000000002
20
-334
42
0.41421356237309503
10
-199.60000000000002
20
-331.99999999999994
10
-209.60000000000002
20
-331.99999999999994
42
0.41421356237309503
10
-211.59999999999997
20
-334
10
-211.59999999999997
20
-342.99999999999989
42
-0.41421356237307422
10
-213.59999999999999
20
-344.99999999999994
10
-230.99999999999997
20
-345
42
-0.41421356237312279
10
-234
20
-341.99999999999994
10
-234
20
-337.99999999999989
42
2.9999999999999867
10
-246
20
-337.99999999999989
10
-246.00000000000006
20
-341.99999999999994
42
-0.41421356237312279
10
-249.00000000000003
20
-344.99999999999994
10
-253
20
-344.99999999999994
10
-255
20
-342.99999999999989
10
-255
20
13
10
-253
20
15.000000000000002
10
-249.00000000000003
20
15
42
-0.4142135623730942
10
-246
20
12.000000000000002
10
-246
20
7.9999999999999893
42
2.9999999999999911
10
-234
20
7.9999999999999893
10
-234
20
11.999999999999993
42
-0.41421356237309437
10
-230.99999999999997
20
15
10
-213.59999999999999
20
15.000000000000044
42
-0.41421356237309631
10
-211.59999999999997
20
13.000000000000007
10
-211.59999999999999
20
4.0000000000000044
42
0.41421356237309581
10
-209.60000000000002
20
1.9999999999999929
10
-199.60000000000002
20
1.9999999999999991
42
0.4142135623730957
10
-197.60000000000002
20
4.0000000000000036
10
-197.60000000000002
20
12.999999999999989
42
-0.41421356237309764
10
-195.60000000000002
20
15
10
-44.400000000000006
20
14.999999999999991
42
-0.4142135623730937
10
-42.400000000000013
20
13.000000000000007
10
-42.400000000000006
20
4.0000000000000044
42
0.4142135623730957
10
-40.399999999999999
20
1.9999999999999929
10
-30.399999999999999
20
1.9999999999999984
42
0.4142135623730957
10
-28.399999999999999
20
4.0000000000000036
10
-28.399999999999999
20
12.999999999999989
42
-0.4142135623730947
10
-26.399999999999999
20
15
0
CIRCLE
5
101
100
AcDbEntity
8
0
100
AcDbCircle
10
3.4999999999999987
20
-97
30
0
40
1.4999999999999982
210
0
220
-0
230
1
0
CIRCLE
5
102
100
AcDbEntity
8
0
100
AcDbCircle
10
3.4999999999999987
20
-109
30
0
40
1.5000000000000031
210
0
220
-0
230
1
0
LWPOLYLINE
5
103
100
AcDbEntity
8
0
100
AcDbPolyline
90
8
70
1
43
0.0
10
-3.0000000000000071
20
-60.000000000000007
10
-3.0000000000000071
20
-75
42
0.41421356237309559
10
-0.99999999999999645
20
-77
10
4.0000000000000027
20
-77
42
0.41421356237309453
10
5.9999999999999964
20
-74.999999999999986
10
6
20
-60
42
0.41421356237309453
10
4.0000000000000036
20
-58.000000000000007
10
-0.99999999999999589
20
-58.000000000000007
42
0.4142135623730957
0
CIRCLE
5
104
100
AcDbEntity
8
0
100
AcDbCircle
10
10.5
20
-85
30
0
40
1.500000000000008
210
0
220
0
230
1
0
CIRCLE
5
105
100
AcDbEntity
8
0
100
AcDbCircle
10
10.5
20
-50
30
0
40
1.5000000000000147
210
0
220
0
230
1
0
CIRCLE
5
106
100
AcDbEntity
8
0
100
AcDbCircle
10
5
20
-290
30
0
40
2.5000000000000022
210
0
220
0
230
1
0
CIRCLE
5
107
100
AcDbEntity
8
0
100
AcDbCircle
10
5
20
-40
30
0
40
2.5
210
0
220
0
230
1
0
CIRCLE
5
108
100
AcDbEntity
8
0
100
AcDbCircle
10
-245
20
-290
30
0
40
2.5
210
0
220
0
230
1
0
CIRCLE
5
109
100
AcDbEntity
8
0
100
AcDbCircle
10
-245
20
-40
30
0
40
2.5
210
0
220
0
230
1
0
CIRCLE
5
110
100
AcDbEntity
8
0
100
AcDbCircle
10
-196.59999999999999
20
-3.5500000000000016
30
0
40
1.4999999999999858
210
0
220
0
230
1
0
CIRCLE
5
111
100
AcDbEntity
8
0
100
AcDbCircle
10
-43.399999999999999
20
-3.550000000000026
30
0
40
1.5000000000000036
210
0
220
0
230
1
0
CIRCLE
5
112
100
AcDbEntity
8
0
100
AcDbCircle
10
-27.399999999999999
20
-3.5500000000000211
30
0
40
1.4999999999999991
210
0
220
0
230
1
0
CIRCLE
5
113
100
AcDbEntity
8
0
100
AcDbCircle
10
-27.399999999999999
20
-326.44999999999993
30
0
40
1.4999999999999813
210
0
220
0
230
1
0
CIRCLE
5
114
100
AcDbEntity
8
0
100
AcDbCircle
10
-196.59999999999999
20
-326.44999999999993
30
0
40
1.4999999999999858
210
0
220
0
230
1
0
CIRCLE
5
115
100
AcDbEntity
8
0
100
AcDbCircle
10
-212.60000000000002
20
-3.5500000000000016
30
0
40
1.4999999999999858
210
0
220
0
230
1
0
CIRCLE
5
116
100
AcDbEntity
8
0
100
AcDbCircle
10
-212.60000000000002
20
-326.44999999999993
30
0
40
1.4999999999999858
210
0
220
0
230
1
0
CIRCLE
5
117
100
AcDbEntity
8
0
100
AcDbCircle
10
-43.399999999999999
20
-326.44999999999993
30
0
40
1.4999999999999858
210
0
220
0
230
1
0
CIRCLE
5
118
100
AcDbEntity
8
0
100
AcDbCircle
10
-10.253048327204933
20
-10.253048327204944
30
0
40
2.0000000000000018
210
0
220
-0
230
1
0
CIRCLE
5
119
100
AcDbEntity
8
0
100
AcDbCircle
10
10.25304832720494
20
10.253048327204937
30
0
40
2.0000000000000018
210
0
220
-0
230
1
0
CIRCLE
5
120
100
AcDbEntity
8
0
100
AcDbCircle
10
-10.253048327204938
20
10.253048327204937
30
0
40
1.9999999999999996
210
0
220
-0
230
1
0
CIRCLE
5
121
100
AcDbEntity
8
0
100
AcDbCircle
10
10.253048327204937
20
-10.253048327204937
30
0
40
2.0000000000000018
210
0
220
-0
230
1
0
CIRCLE
5
122
100
AcDbEntity
8
0
100
AcDbCircle
10
-229.74695167279506
20
10.253048327204937
30
0
40
1.9999999999999929
210
0
220
-0
230
1
0
CIRCLE
5
123
100
AcDbEntity
8
0
100
AcDbCircle
10
-250.25304832720494
20
-10.253048327204944
30
0
40
1.9999999999999929
210
0
220
-0
230
1
0
CIRCLE
5
124
100
AcDbEntity
8
0
100
AcDbCircle
10
-229.74695167279506
20
-10.253048327204937
30
0
40
1.9999999999999929
210
0
220
-0
230
1
0
CIRCLE
5
125
100
AcDbEntity
8
0
100
AcDbCircle
10
-250.25304832720494
20
10.253048327204937
30
0
40
1.9999999999999929
210
0
220
-0
230
1
0
CIRCLE
5
126
100
AcDbEntity
8
0
100
AcDbCircle
10
-229.74695167279506
20
-319.74695167279498
30
0
40
1.9999999999999929
210
0
220
-0
230
1
0
CIRCLE
5
127
100
AcDbEntity
8
0
100
AcDbCircle
10
-250.25304832720494
20
-340.25304832720485
30
0
40
1.9999999999999929
210
0
220
-0
230
1
0
CIRCLE
5
128
100
AcDbEntity
8
0
100
AcDbCircle
10
-229.74695167279506
20
-340.25304832720485
30
0
40
1.9999999999999929
210
0
220
-0
230
1
0
CIRCLE
5
129
100
AcDbEntity
8
0
100
AcDbCircle
10
-250.25304832720494
20
-319.74695167279498
30
0
40
1.9999999999999929
210
0
220
-0
230
1
0
CIRCLE
5
130
100
AcDbEntity
8
0
100
AcDbCircle
10
10.25304832720494
20
-319.74695167279498
30
0
40
2.0000000000000018
210
0
220
-0
230
1
0
CIRCLE
5
131
100
AcDbEntity
8
0
100
AcDbCircle
10
-10.253048327204933
20
-340.25304832720485
30
0
40
2.0000000000000018
210
0
220
-0
230
1
0
CIRCLE
5
132
100
AcDbEntity
8
0
100
AcDbCircle
10
10.253048327204937
20
-340.25304832720485
30
0
40
2.0000000000000018
210
0
220
-0
230
1
0
CIRCLE
5
133
100
AcDbEntity
8
0
100
AcDbCircle
10
-10.253048327204938
20
-319.74695167279498
30
0
40
1.9999999999999996
210
0
220
-0
230
1
0
ENDSEC
0
SECTION
2
OBJECTS
0
DICTIONARY
5
C
100
AcDbDictionary
3
ACAD_GROUP
350
D
3
ACAD_MLINESTYLE
350
17
0
DICTIONARY
5
D
100
AcDbDictionary
0
DICTIONARY
5
1A
330
C
100
AcDbDictionary
0
DICTIONARY
5
17
100
AcDbDictionary
0
ENDSEC
0
EOF
